<?xml version="1.0" encoding="utf-8"?>
<!-- Generator: Adobe Illustrator 16.0.0, SVG Export Plug-In . SVG Version: 6.00 Build 0)  -->
<!DOCTYPE svg PUBLIC "-//W3C//DTD SVG 1.1//EN" "http://www.w3.org/Graphics/SVG/1.1/DTD/svg11.dtd">
<svg version="1.1" id="Layer_1" xmlns="http://www.w3.org/2000/svg" xmlns:xlink="http://www.w3.org/1999/xlink" x="0px" y="0px"
	 width="512px" height="512px" viewBox="0 0 512 512" enable-background="new 0 0 512 512" xml:space="preserve">
<g>
	<g>
		<g>
			<path fill="#627F98" d="M281.6,34.133h-51.2c-23.526,0-42.667,19.14-42.667,42.667c0,4.71,3.823,8.533,8.533,8.533
				S204.8,81.51,204.8,76.8c0-14.114,11.486-25.6,25.6-25.6h51.2c14.114,0,25.601,11.486,25.601,25.6
				c0,4.71,3.823,8.533,8.532,8.533c4.711,0,8.533-3.823,8.533-8.533C324.268,53.274,305.126,34.133,281.6,34.133z"/>
			<path fill="#627F98" d="M162.133,85.333c4.71,0,8.533-3.823,8.533-8.533c0-30.703,29.03-59.733,59.733-59.733H281.6
				c31.266,0,59.732,28.467,59.732,59.733c0,4.71,3.823,8.533,8.533,8.533S358.4,81.51,358.4,76.8C358.4,35.891,322.509,0,281.6,0
				h-51.2c-40.192,0-76.8,36.608-76.8,76.8C153.6,81.51,157.423,85.333,162.133,85.333z"/>
			<path fill="#627F98" d="M503.467,366.933c-4.71,0-8.533,3.823-8.533,8.533v93.867c0,14.114-11.485,25.6-25.6,25.6H42.667
				c-14.114,0-25.6-11.485-25.6-25.6v-93.867c0-4.71-3.823-8.533-8.533-8.533S0,370.756,0,375.467v93.867
				C0,492.86,19.14,512,42.667,512h426.667C492.86,512,512,492.86,512,469.333v-93.867C512,370.756,508.177,366.933,503.467,366.933
				z"/>
			<path fill="#627F98" d="M469.333,102.4H42.667C19.14,102.4,0,121.54,0,145.067v170.667C0,339.26,19.14,358.4,42.667,358.4H230.4
				c4.71,0,8.533-3.823,8.533-8.533v-76.801h34.133v76.801c0,4.71,3.822,8.533,8.533,8.533h187.732
				c23.526,0,42.667-19.141,42.667-42.667V145.067C512,121.54,492.86,102.4,469.333,102.4z M494.933,315.733
				c0,14.113-11.485,25.6-25.6,25.6h-179.2v-68.267c0-9.412-7.654-17.067-17.066-17.067h-34.133
				c-9.412,0-17.067,7.653-17.067,17.067v68.267h-179.2c-14.114,0-25.6-11.486-25.6-25.6V145.067c0-14.114,11.486-25.6,25.6-25.6
				h42.667v196.268c0,4.71,3.823,8.532,8.533,8.532s8.533-3.822,8.533-8.532V119.467H409.6v196.268c0,4.71,3.822,8.532,8.532,8.532
				s8.533-3.822,8.533-8.532V119.467h42.667c14.114,0,25.6,11.486,25.6,25.6L494.933,315.733L494.933,315.733z"/>
			<path fill="#627F98" d="M264.789,392.533c0-4.71-3.814-8.533-8.533-8.533h-0.085c-4.71,0-8.491,3.823-8.491,8.533
				s3.866,8.533,8.576,8.533C260.975,401.067,264.789,397.244,264.789,392.533z"/>
			<path fill="#627F98" d="M230.4,375.467c-4.71,0-8.533,3.823-8.533,8.533v25.6c0,9.412,7.654,17.067,17.067,17.067h34.132
				c9.412,0,17.067-7.654,17.067-17.067V384c0-4.71-3.823-8.533-8.532-8.533c-4.711,0-8.533,3.823-8.533,8.533v25.6h-34.133V384
				C238.933,379.29,235.11,375.467,230.4,375.467z"/>
		</g>
	</g>
</g>
</svg>
