<?xml version="1.0" encoding="utf-8"?>
<!-- Generator: Adobe Illustrator 16.0.0, SVG Export Plug-In . SVG Version: 6.00 Build 0)  -->
<!DOCTYPE svg PUBLIC "-//W3C//DTD SVG 1.1//EN" "http://www.w3.org/Graphics/SVG/1.1/DTD/svg11.dtd">
<svg version="1.1" id="Layer_1" xmlns="http://www.w3.org/2000/svg" xmlns:xlink="http://www.w3.org/1999/xlink" x="0px" y="0px"
	 width="512px" height="512px" viewBox="0 0 512 512" enable-background="new 0 0 512 512" xml:space="preserve">
<g>
	<g>
		<g>
			<path fill="#627F98" d="M136.424,235.44c0,4.565,1.783,8.849,5.009,12.066l6.033,6.033c8.064,8.055,18.765,12.492,30.165,12.492
				c11.401,0,22.109-4.437,30.173-12.492l42.505-42.505c16.835,14.063,37.853,21.717,60.041,21.717h0.043
				c25.079-0.017,48.683-9.805,66.44-27.571c3.337-3.336,3.337-8.738,0-12.066c-3.337-3.337-8.729-3.337-12.065,0
				c-14.541,14.541-33.86,22.562-54.383,22.571h-0.026c-20.506,0-39.782-7.987-54.28-22.485c-3.337-3.328-8.738-3.328-12.066,0
				l-48.282,48.272c-9.66,9.668-26.53,9.668-36.198,0l-6.033-6.033l102.578-102.578c9.566-9.566,18.654-9.566,30.164-9.566
				c12.322,0,27.674,0,42.24-14.566l24.132-24.141c3.336-3.336,3.336-8.738,0-12.066c-3.328-3.337-8.729-3.337-12.065,0
				l-24.133,24.141c-9.573,9.566-18.661,9.566-30.174,9.566c-12.321,0-27.664,0-42.23,14.566L141.441,223.365
				C138.207,226.591,136.424,230.875,136.424,235.44z"/>
			<path fill="#627F98" d="M76.801,93.89c9.412,0,17.067-7.654,17.067-17.067c0-9.412-7.654-17.067-17.067-17.067
				c-9.412,0-17.067,7.654-17.067,17.067C59.734,86.236,67.39,93.89,76.801,93.89z"/>
			<path fill="#627F98" d="M159.532,120.796l24.132,24.132c1.672,1.673,3.857,2.5,6.033,2.5c2.185,0,4.369-0.828,6.033-2.5
				c3.337-3.328,3.337-8.73,0-12.066l-24.132-24.132c-3.328-3.336-8.73-3.336-12.066,0
				C156.204,112.058,156.204,117.459,159.532,120.796z"/>
			<path fill="#627F98" d="M435.198,59.757c9.404,0,17.067-7.654,17.067-17.067c0-9.412-7.663-17.066-17.067-17.066
				c-9.403,0-17.066,7.654-17.066,17.066C418.132,52.103,425.795,59.757,435.198,59.757z"/>
			<path fill="#627F98" d="M454.766,181.724c-13.867,13.867-18.628,36.454-23.228,58.299c-4.079,19.388-8.304,39.45-18.577,49.723
				l-12.075,12.066c-3.328,3.337-3.328,8.738,0,12.066c1.672,1.673,3.856,2.5,6.042,2.5c2.176,0,4.361-0.828,6.033-2.5
				l12.065-12.066c13.858-13.857,18.611-36.437,23.211-58.273c4.087-19.405,8.32-39.467,18.594-49.749
				c3.337-3.328,3.337-8.73,0-12.066C463.495,178.387,458.103,178.387,454.766,181.724z"/>
			<path fill="#627F98" d="M509.498,181.724L370.465,42.69l28.1-28.1c3.338-3.337,3.338-8.73,0-12.066
				c-3.336-3.336-8.729-3.336-12.065,0l-34.133,34.133c-3.337,3.337-3.337,8.73,0,12.066L497.432,193.79
				c1.664,1.664,3.85,2.5,6.033,2.5c2.185,0,4.369-0.836,6.033-2.5C512.834,190.453,512.834,185.06,509.498,181.724z"/>
			<path fill="#627F98" d="M316.416,253.539c-3.338-3.328-8.73-3.328-12.066,0c-3.336,3.337-3.336,8.738,0,12.074l90.504,90.505
				c6.656,6.656,6.656,17.485,0,24.141c-6.639,6.64-17.476,6.647-24.141,0l-90.504-90.513c-3.337-3.336-8.738-3.336-12.066,0
				c-3.337,3.338-3.337,8.738,0,12.066l114.645,114.645c6.656,6.655,6.656,17.484,0,24.132c-6.656,6.646-17.477,6.665-24.141,0.008
				L250.044,331.985c-3.337-3.337-8.738-3.337-12.066,0c-3.337,3.328-3.337,8.729,0,12.066l96.538,96.537
				c6.656,6.655,6.656,17.484,0,24.141c-6.451,6.451-17.682,6.451-24.132-0.008l-12.075-12.066H298.3l-78.43-78.429
				c-3.337-3.337-8.738-3.337-12.066,0c-3.336,3.327-3.336,8.729,0,12.065l78.438,78.438c3.226,3.226,5,7.509,5,12.075
				c0,4.557-1.774,8.841-5,12.065c-6.639,6.639-17.477,6.656-24.133-0.009L116.968,343.855
				c-22.127-22.127-26.931-50.021-31.172-74.641c-3.567-20.71-6.938-40.269-20.028-53.358c-3.337-3.337-8.73-3.337-12.066,0
				s-3.337,8.73,0,12.066c9.259,9.259,12.049,25.446,15.275,44.193c4.437,25.771,9.967,57.847,35.925,83.806l145.142,145.016
				c6.647,6.646,15.386,9.983,24.132,9.983c8.738-0.009,17.484-3.337,24.132-9.983c4.847-4.855,8.063-10.906,9.36-17.493
				c12.511,6.033,28.801,3.481,38.912-6.647c4.855-4.854,8.064-10.913,9.361-17.502c12.688,6.094,28.406,3.866,38.912-6.639
				c13.312-13.303,13.312-34.952,0-48.265l-3.234-3.243c5.605-1.492,10.914-4.437,15.309-8.822c13.303-13.313,13.303-34.97,0-48.272
				L316.416,253.539z"/>
			<path fill="#627F98" d="M159.634,70.791l-51.2-51.2c-3.336-3.337-8.73-3.337-12.066,0c-3.337,3.336-3.337,8.73,0,12.066
				l45.167,45.167L2.502,215.856c-3.336,3.337-3.336,8.73,0,12.066c1.664,1.664,3.849,2.5,6.033,2.5c2.184,0,4.369-0.836,6.033-2.5
				L159.634,82.857C162.971,79.521,162.971,74.127,159.634,70.791z"/>
			<path fill="#627F98" d="M209.877,493.375c-4.753,2.492-12.868,2.79-20.181-4.506c-7.313-7.322-7.253-15.829-4.881-19.533
				c2.355-3.669,1.57-8.516-1.835-11.255c-3.388-2.738-8.294-2.482-11.383,0.614c-6.665,6.656-17.502,6.647-24.141,0
				c-6.647-6.656-6.647-17.484,0-24.141c1.673-1.664,2.5-3.849,2.5-6.033c0-2.184-0.828-4.36-2.5-6.033
				c-3.328-3.327-8.73-3.327-12.066,0l-6.033,6.033c-6.647,6.656-17.485,6.656-24.132,0s-6.647-17.484,0-24.132l6.033-6.033
				c3.038-3.028,3.345-7.842,0.734-11.237c-2.611-3.396-7.347-4.326-11.042-2.186c-4.642,2.68-12.809,2.364-19.857-4.676
				c-7.492-7.492-7.458-15.795-5.043-19.294c2.679-3.874,1.698-9.189-2.176-11.869c-3.883-2.688-9.19-1.707-11.87,2.176
				c-6.903,10.001-6.716,27.314,7.023,41.054c5.41,5.401,11.298,8.627,17.101,10.172c-1.946,4.335-2.97,9.07-2.97,13.961
				c0,9.113,3.55,17.689,10.001,24.132c8.755,8.764,21.137,11.759,32.375,8.985c0.666,7.731,3.951,15.283,9.856,21.188
				c8.491,8.481,20.352,11.554,31.292,9.232c1.058,7.066,4.48,14.464,10.948,20.941c7.893,7.885,17.109,11.041,25.523,11.041
				c5.402,0,10.47-1.306,14.643-3.489c4.173-2.186,5.786-7.339,3.593-11.521C219.204,492.803,214.033,491.182,209.877,493.375z"/>
		</g>
	</g>
</g>
</svg>
