<?xml version="1.0" encoding="utf-8"?>
<!-- Generator: Adobe Illustrator 16.0.0, SVG Export Plug-In . SVG Version: 6.00 Build 0)  -->
<!DOCTYPE svg PUBLIC "-//W3C//DTD SVG 1.1//EN" "http://www.w3.org/Graphics/SVG/1.1/DTD/svg11.dtd">
<svg version="1.1" id="Layer_1" xmlns="http://www.w3.org/2000/svg" xmlns:xlink="http://www.w3.org/1999/xlink" x="0px" y="0px"
	 width="687.041px" height="167.5px" viewBox="0 0 687.041 167.5" enable-background="new 0 0 687.041 167.5" xml:space="preserve">
<path fill="#224156" d="M10.865,59.378c0-16.351,0-19.363-0.215-22.806c-0.215-3.657-1.076-5.378-4.626-6.131
	c-0.86-0.215-2.689-0.323-4.195-0.323C0.645,30.118,0,29.902,0,29.15c0-0.753,0.753-0.968,2.367-0.968
	c5.701,0,12.479,0.323,15.49,0.323c3.335,0,10.112-0.323,16.567-0.323c13.447,0,31.412,0,43.138,12.263
	c5.378,5.594,10.434,14.522,10.434,27.324c0,13.554-5.701,23.881-11.726,30.013c-4.948,5.056-16.136,12.693-36.037,12.693
	c-3.872,0-8.283-0.322-12.371-0.646c-4.088-0.322-7.853-0.646-10.542-0.646c-1.184,0-3.55,0-6.132,0.108
	c-2.474,0-5.271,0.215-7.423,0.215c-1.398,0-2.151-0.323-2.151-1.076c0-0.538,0.43-0.86,1.721-0.86c1.614,0,2.904-0.216,3.873-0.431
	c2.151-0.43,2.689-2.797,3.119-5.916c0.538-4.518,0.538-13.017,0.538-22.913V59.378z M24.312,71.211
	c0,11.403,0.108,19.686,0.215,21.73c0.108,2.689,0.323,6.992,1.183,8.176c1.399,2.044,5.594,4.303,14.093,4.303
	c10.972,0,18.288-2.152,24.742-7.745c6.885-5.917,9.036-15.706,9.036-26.787c0-13.662-5.701-22.482-10.327-26.893
	c-9.897-9.467-22.16-10.757-30.551-10.757c-2.151,0-6.132,0.322-6.993,0.752c-0.968,0.431-1.29,0.969-1.29,2.152
	c-0.108,3.658-0.108,13.017-0.108,21.515V71.211z"/>
<path fill="#224156" d="M106.923,59.378c0-16.351,0-19.363-0.215-22.806c-0.215-3.657-1.076-5.378-4.626-6.131
	c-0.86-0.215-2.689-0.323-4.195-0.323c-1.184,0-1.829-0.215-1.829-0.968s0.753-0.968,2.367-0.968c5.701,0,12.478,0.323,15.706,0.323
	c2.581,0,9.359-0.323,13.231-0.323c1.614,0,2.367,0.215,2.367,0.968s-0.645,0.968-1.721,0.968c-1.183,0-1.829,0.108-3.12,0.323
	c-2.905,0.538-3.765,2.367-3.98,6.131c-0.215,3.443-0.215,6.455-0.215,22.806v15.061c0,15.598,3.119,22.16,8.391,26.463
	c4.84,3.979,9.789,4.409,13.446,4.409c4.734,0,10.543-1.505,14.845-5.808c5.917-5.917,6.24-15.599,6.24-26.679V59.378
	c0-16.351,0-19.363-0.215-22.806c-0.216-3.657-1.076-5.378-4.626-6.131c-0.861-0.215-2.689-0.323-3.873-0.323
	c-1.183,0-1.828-0.215-1.828-0.968s0.752-0.968,2.258-0.968c5.487,0,12.264,0.323,12.372,0.323c1.29,0,8.068-0.323,12.263-0.323
	c1.506,0,2.259,0.215,2.259,0.968s-0.645,0.968-1.936,0.968c-1.184,0-1.829,0.108-3.12,0.323c-2.904,0.538-3.765,2.367-3.98,6.131
	c-0.215,3.443-0.215,6.455-0.215,22.806v11.51c0,11.942-1.183,24.635-10.22,32.38c-7.638,6.563-15.383,7.746-22.375,7.746
	c-5.701,0-16.029-0.321-23.882-7.422c-5.486-4.949-9.574-12.91-9.574-28.508V59.378z"/>
<path fill="#224156" d="M229.875,64.542c3.442,5.271,20.869,34.424,23.559,37.866c1.829,2.366,3.442,3.658,6.239,4.518
	c1.829,0.538,3.119,0.646,4.088,0.646c0.753,0,1.398,0.215,1.398,0.86c0,0.754-0.86,1.076-2.043,1.076h-3.228
	c-2.581,0-11.08,0-19.363-0.215c-2.797-0.107-3.658-0.323-3.658-1.076c0-0.646,0.538-0.968,1.506-1.184
	c0.538-0.107,0.968-1.075,0.215-2.474c-5.916-10.542-12.048-21.192-16.997-29.26l-15.92,25.709
	c-1.076,1.722-1.614,3.335-1.506,4.519c0.107,0.969,1.075,1.613,2.044,1.829c0.645,0.107,1.613,0.215,2.474,0.215
	c0.645,0,1.291,0.323,1.291,0.969c0,0.753-0.753,0.968-2.152,0.968h-1.936c-0.646,0-7.423-0.322-10.112-0.322
	c-2.044,0-7.315,0.322-9.036,0.322h-1.829c-1.076,0-1.614-0.322-1.614-0.968s0.646-0.969,1.506-0.969
	c0.753,0,2.367-0.107,3.981-0.538c3.119-0.86,5.163-2.904,8.82-8.067l20.547-29.368l-18.503-30.659
	c-2.581-4.303-5.163-6.885-8.928-8.068c-1.721-0.538-3.442-0.753-4.518-0.753c-0.646,0-1.076-0.323-1.076-1.076
	c0-0.645,0.753-0.86,2.152-0.86c2.581,0,11.295,0.322,16.351,0.322c1.506,0,7.53-0.322,11.51-0.322c1.506,0,2.152,0.215,2.152,0.968
	c0,0.752-0.646,0.968-1.614,0.968c-0.645,0-2.044,0.108-2.904,0.43c-0.969,0.323-1.291,1.076-1.291,1.721
	c0,0.646,0.43,1.936,1.076,3.12c4.625,8.606,9.466,16.459,13.661,23.774c3.12-4.733,13.017-19.686,14.63-22.699
	c0.861-1.505,1.184-3.226,1.184-4.087c0-0.753-0.753-1.614-1.829-1.936c-1.076-0.323-2.582-0.323-3.442-0.323
	c-0.646,0-1.291-0.216-1.291-0.968c0-0.646,0.753-0.968,2.259-0.968c4.195,0,8.713,0.322,10.757,0.322
	c2.152,0,6.562-0.322,10.543-0.322c1.183,0,1.936,0.322,1.936,0.968c0,0.645-0.646,0.968-1.721,0.968
	c-1.076,0-2.367,0.215-3.873,0.645c-2.474,0.646-4.626,3.657-7.853,8.391L229.875,64.542z"/>
<path fill="#224156" d="M279.784,59.378c0-16.351,0-19.363-0.215-22.806c-0.215-3.657-1.076-5.378-4.626-6.131
	c-0.86-0.215-2.689-0.323-4.195-0.323c-1.183,0-1.829-0.216-1.829-0.968c0-0.753,0.753-0.968,2.367-0.968
	c5.701,0,12.479,0.322,14.63,0.322c5.271,0,9.467-0.322,13.124-0.322c19.471,0,22.914,10.434,22.914,16.136
	c0,8.821-5.057,14.092-10.973,18.825c8.821,3.012,19.578,10.65,19.578,23.236c0,11.511-8.929,23.451-28.722,23.451
	c-1.291,0-4.41-0.215-7.53-0.322c-3.228-0.215-6.454-0.323-8.068-0.323c-1.184,0-3.55,0-6.132,0.108
	c-2.474,0-5.271,0.215-7.423,0.215c-1.398,0-2.151-0.323-2.151-1.076c0-0.538,0.43-0.86,1.721-0.86c1.614,0,2.904-0.215,3.873-0.431
	c2.151-0.43,2.689-2.797,3.119-5.916c0.538-4.518,0.538-13.017,0.538-22.912V59.378z M292.693,61.207
	c0,0.86,0.323,1.076,0.753,1.184c0.969,0.215,2.582,0.322,5.056,0.322c3.55,0,5.917-0.43,7.746-2.044
	c2.797-2.259,4.41-6.132,4.41-11.403c0-7.207-4.195-16.674-13.447-16.674c-1.506,0-2.474,0-3.55,0.216
	c-0.753,0.215-0.968,0.645-0.968,1.828V61.207z M306.893,69.813c-2.259-1.614-4.733-2.367-8.929-2.582
	c-1.936-0.107-3.012-0.107-4.625-0.107c-0.431,0-0.646,0.215-0.646,0.753v25.495c0,7.099,0.323,8.928,3.765,10.327
	c2.905,1.183,5.379,1.291,7.853,1.291c4.841,0,13.017-2.582,13.017-13.771C317.328,84.55,315.069,75.514,306.893,69.813"/>
<path fill="#224156" d="M341.959,68.844c0-18.395,12.155-42.169,44.428-42.169c26.786,0,43.46,15.599,43.46,40.233
	s-17.213,44.106-44.536,44.106C354.437,111.015,341.959,87.886,341.959,68.844 M414.786,70.888c0-24.096-13.877-39.049-31.52-39.049
	c-12.37,0-26.463,6.884-26.463,33.671c0,22.375,12.37,40.125,33.025,40.125C397.359,105.635,414.786,101.978,414.786,70.888"/>
<path fill="#224156" d="M457.702,81.431c-0.538,0-0.753,0.215-0.968,0.861l-5.81,15.383c-1.075,2.688-1.613,5.271-1.613,6.562
	c0,1.938,0.968,3.335,4.303,3.335h1.613c1.292,0,1.613,0.216,1.613,0.861c0,0.86-0.645,1.075-1.828,1.075
	c-3.442,0-8.067-0.322-11.403-0.322c-1.183,0-7.099,0.322-12.693,0.322c-1.398,0-2.044-0.215-2.044-1.075
	c0-0.646,0.43-0.861,1.291-0.861c0.968,0,2.475-0.107,3.335-0.215c4.948-0.646,6.992-4.304,9.145-9.682l27.001-67.556
	c1.29-3.12,1.936-4.303,3.012-4.303c0.968,0,1.614,0.967,2.689,3.442c2.582,5.917,19.794,49.807,26.679,66.158
	c4.088,9.681,7.207,11.188,9.466,11.726c1.614,0.322,3.227,0.43,4.518,0.43c0.861,0,1.399,0.107,1.399,0.861
	c0,0.86-0.969,1.075-4.949,1.075c-3.872,0-11.726,0-20.331-0.215c-1.936-0.107-3.228-0.107-3.228-0.86
	c0-0.646,0.431-0.861,1.507-0.969c0.752-0.215,1.505-1.184,0.968-2.475l-8.606-22.806c-0.215-0.538-0.537-0.753-1.075-0.753H457.702
	z M479.647,76.053c0.538,0,0.645-0.323,0.538-0.646l-9.683-26.57c-0.106-0.431-0.215-0.969-0.538-0.969
	c-0.321,0-0.536,0.538-0.645,0.969l-9.897,26.462c-0.107,0.431,0,0.754,0.432,0.754H479.647z"/>
<path fill="#224156" d="M528.697,59.377c0-16.351,0-19.363-0.215-22.805c-0.216-3.657-1.077-5.379-4.626-6.132
	c-0.86-0.215-2.689-0.322-4.195-0.322c-1.184,0-1.829-0.216-1.829-0.969s0.753-0.968,2.366-0.968c5.701,0,12.479,0.323,14.737,0.323
	c3.658,0,11.834-0.323,15.169-0.323c6.777,0,13.984,0.646,19.794,4.626c3.012,2.044,7.315,7.53,7.315,14.737
	c0,7.961-3.336,15.276-14.2,24.097c9.574,12.049,16.996,21.622,23.343,28.292c6.024,6.24,10.436,6.992,12.049,7.314
	c1.184,0.216,2.151,0.323,3.012,0.323s1.292,0.322,1.292,0.861c0,0.86-0.753,1.075-2.044,1.075h-10.221
	c-6.023,0-8.713-0.538-11.51-2.044c-4.626-2.475-8.714-7.53-14.738-15.813c-4.303-5.916-9.252-13.23-10.649-14.845
	c-0.538-0.646-1.184-0.753-1.937-0.753l-9.358-0.216c-0.538,0-0.861,0.216-0.861,0.86v1.506c0,10.006,0,18.503,0.538,23.021
	c0.323,3.12,0.968,5.486,4.195,5.917c1.613,0.215,3.98,0.43,5.271,0.43c0.86,0,1.29,0.322,1.29,0.861
	c0,0.753-0.752,1.075-2.15,1.075c-6.24,0-14.2-0.322-15.814-0.322c-2.044,0-8.821,0.322-13.123,0.322
	c-1.399,0-2.152-0.322-2.152-1.075c0-0.539,0.431-0.861,1.722-0.861c1.613,0,2.904-0.215,3.873-0.43
	c2.15-0.431,2.688-2.797,3.119-5.917c0.538-4.519,0.538-13.016,0.538-22.913V59.377z M541.391,67.876
	c0,1.184,0.215,1.614,0.969,1.936c2.26,0.753,5.486,1.076,8.176,1.076c4.303,0,5.701-0.43,7.638-1.828
	c3.227-2.368,6.346-7.316,6.346-16.137c0-15.275-10.111-19.686-16.458-19.686c-2.689,0-4.626,0.108-5.701,0.43
	c-0.754,0.215-0.969,0.645-0.969,1.507V67.876z"/>
<path fill="#224156" d="M609.91,59.378c0-16.351,0-19.363-0.215-22.806c-0.216-3.657-1.076-5.378-4.626-6.131
	c-0.861-0.215-2.689-0.323-4.195-0.323c-1.184,0-1.828-0.216-1.828-0.968c0-0.753,0.753-0.968,2.365-0.968
	c5.701,0,12.479,0.323,15.491,0.323c3.335,0,10.112-0.323,16.567-0.323c13.447,0,31.412,0,43.137,12.263
	c5.379,5.594,10.434,14.522,10.434,27.324c0,13.554-5.7,23.881-11.725,30.013c-4.948,5.056-16.136,12.693-36.038,12.693
	c-3.872,0-8.282-0.322-12.371-0.646c-4.088-0.322-7.852-0.646-10.541-0.646c-1.184,0-3.551,0-6.132,0.108
	c-2.474,0-5.271,0.215-7.423,0.215c-1.399,0-2.151-0.323-2.151-1.076c0-0.538,0.431-0.86,1.721-0.86
	c1.613,0,2.904-0.216,3.873-0.431c2.151-0.43,2.688-2.797,3.119-5.916c0.538-4.518,0.538-13.017,0.538-22.913V59.378z
	 M623.357,71.211c0,11.403,0.108,19.686,0.215,21.73c0.108,2.689,0.323,6.992,1.184,8.176c1.398,2.044,5.594,4.303,14.092,4.303
	c10.973,0,18.288-2.152,24.742-7.745c6.885-5.917,9.037-15.706,9.037-26.787c0-13.662-5.701-22.482-10.327-26.893
	c-9.898-9.467-22.161-10.757-30.553-10.757c-2.15,0-6.131,0.322-6.991,0.752c-0.969,0.431-1.29,0.969-1.29,2.152
	c-0.108,3.658-0.108,13.017-0.108,21.515V71.211z"/>
<g>
	<path fill="#224156" d="M54.652,155.631c0-3.075,0-3.642-0.041-4.289c-0.041-0.688-0.203-1.012-0.87-1.153
		c-0.162-0.041-0.506-0.061-0.789-0.061c-0.223,0-0.344-0.041-0.344-0.183s0.142-0.182,0.445-0.182c0.546,0,1.133,0.02,1.639,0.02
		c0.526,0.021,0.991,0.041,1.274,0.041c0.647,0,4.674,0,5.059-0.021c0.384-0.04,0.708-0.081,0.87-0.121
		c0.102-0.021,0.223-0.081,0.324-0.081c0.102,0,0.122,0.081,0.122,0.182c0,0.143-0.101,0.385-0.162,1.315
		c-0.02,0.202-0.061,1.093-0.101,1.336c-0.02,0.101-0.061,0.223-0.202,0.223s-0.182-0.102-0.182-0.284
		c0-0.142-0.02-0.485-0.122-0.728c-0.142-0.364-0.344-0.607-1.355-0.729c-0.344-0.041-2.468-0.081-2.873-0.081
		c-0.101,0-0.142,0.061-0.142,0.202v5.119c0,0.142,0.02,0.223,0.142,0.223c0.445,0,2.772,0,3.237-0.041
		c0.485-0.04,0.789-0.101,0.971-0.303c0.142-0.162,0.223-0.264,0.324-0.264c0.081,0,0.142,0.041,0.142,0.162
		s-0.081,0.445-0.162,1.477c-0.021,0.405-0.081,1.215-0.081,1.356c0,0.161,0,0.384-0.182,0.384c-0.142,0-0.182-0.081-0.182-0.182
		c-0.021-0.202-0.021-0.466-0.081-0.729c-0.101-0.404-0.384-0.708-1.133-0.789c-0.385-0.041-2.388-0.061-2.873-0.061
		c-0.102,0-0.122,0.081-0.122,0.202v1.599c0,0.688-0.021,2.549,0,3.136c0.041,1.396,0.364,1.699,2.428,1.699
		c0.526,0,1.376,0,1.902-0.242c0.526-0.243,0.769-0.668,0.911-1.497c0.041-0.223,0.081-0.304,0.223-0.304
		c0.162,0,0.162,0.162,0.162,0.364c0,0.465-0.162,1.841-0.263,2.246c-0.142,0.525-0.324,0.525-1.093,0.525
		c-1.518,0-2.63-0.04-3.5-0.061c-0.87-0.04-1.498-0.061-2.104-0.061c-0.223,0-0.667,0-1.153,0.021c-0.465,0-0.991,0.04-1.396,0.04
		c-0.263,0-0.405-0.061-0.405-0.202c0-0.102,0.081-0.162,0.324-0.162c0.304,0,0.546-0.04,0.729-0.081
		c0.405-0.081,0.506-0.525,0.587-1.112c0.101-0.85,0.101-2.448,0.101-4.31V155.631z"/>
	<path fill="#224156" d="M69.466,155.631c0-3.075,0-3.642-0.041-4.289c-0.041-0.688-0.203-1.012-0.87-1.153
		c-0.162-0.041-0.506-0.061-0.789-0.061c-0.223,0-0.344-0.041-0.344-0.183s0.142-0.182,0.445-0.182c1.072,0,2.347,0.061,2.914,0.061
		c0.627,0,1.902-0.061,3.116-0.061c2.529,0,5.908,0,8.113,2.307c1.012,1.052,1.962,2.731,1.962,5.139
		c0,2.55-1.072,4.492-2.205,5.646c-0.931,0.951-3.035,2.388-6.778,2.388c-0.729,0-1.558-0.062-2.327-0.122s-1.477-0.121-1.983-0.121
		c-0.223,0-0.667,0-1.153,0.021c-0.465,0-0.991,0.04-1.396,0.04c-0.263,0-0.405-0.061-0.405-0.202c0-0.102,0.081-0.162,0.324-0.162
		c0.304,0,0.546-0.04,0.729-0.081c0.405-0.081,0.506-0.525,0.587-1.112c0.101-0.85,0.101-2.448,0.101-4.31V155.631z M71.995,157.856
		c0,2.145,0.021,3.703,0.041,4.087c0.021,0.506,0.061,1.315,0.223,1.538c0.263,0.385,1.052,0.81,2.65,0.81
		c2.064,0,3.44-0.405,4.654-1.457c1.295-1.112,1.7-2.954,1.7-5.038c0-2.569-1.072-4.229-1.942-5.059
		c-1.861-1.78-4.168-2.022-5.746-2.022c-0.405,0-1.153,0.061-1.315,0.142c-0.182,0.08-0.243,0.182-0.243,0.404
		c-0.021,0.688-0.021,2.448-0.021,4.047V157.856z"/>
	<path fill="#224156" d="M89.562,155.631c0-3.075,0-3.642-0.041-4.289c-0.041-0.688-0.202-1.012-0.87-1.153
		c-0.162-0.041-0.506-0.061-0.789-0.061c-0.223,0-0.344-0.041-0.344-0.183s0.142-0.182,0.445-0.182c1.073,0,2.347,0.061,2.954,0.061
		c0.486,0,1.76-0.061,2.489-0.061c0.304,0,0.445,0.04,0.445,0.182s-0.122,0.183-0.324,0.183c-0.223,0-0.344,0.02-0.587,0.061
		c-0.546,0.101-0.708,0.445-0.749,1.153c-0.041,0.647-0.041,1.214-0.041,4.289v2.833c0,2.934,0.587,4.168,1.578,4.978
		c0.911,0.748,1.841,0.829,2.529,0.829c0.89,0,1.983-0.283,2.792-1.093c1.113-1.112,1.174-2.934,1.174-5.018v-2.529
		c0-3.075,0-3.642-0.041-4.289c-0.041-0.688-0.203-1.012-0.87-1.153c-0.162-0.041-0.506-0.061-0.729-0.061s-0.344-0.041-0.344-0.183
		s0.142-0.182,0.425-0.182c1.032,0,2.307,0.061,2.327,0.061c0.243,0,1.518-0.061,2.307-0.061c0.283,0,0.425,0.04,0.425,0.182
		s-0.121,0.183-0.364,0.183c-0.223,0-0.344,0.02-0.586,0.061c-0.546,0.101-0.708,0.445-0.749,1.153
		c-0.04,0.647-0.04,1.214-0.04,4.289v2.165c0,2.246-0.223,4.634-1.922,6.09c-1.437,1.234-2.894,1.457-4.208,1.457
		c-1.072,0-3.015-0.061-4.492-1.396c-1.032-0.931-1.801-2.429-1.801-5.362V155.631z"/>
	<path fill="#224156" d="M110.001,163.138c-1.983-1.74-2.509-4.006-2.509-5.969c0-1.376,0.425-3.764,2.367-5.544
		c1.457-1.336,3.379-2.145,6.394-2.145c1.255,0,2.003,0.081,2.934,0.202c0.769,0.101,1.417,0.283,2.023,0.344
		c0.222,0.021,0.303,0.121,0.303,0.243c0,0.162-0.061,0.404-0.101,1.112c-0.041,0.668-0.02,1.781-0.061,2.186
		c-0.021,0.304-0.061,0.465-0.243,0.465c-0.162,0-0.203-0.161-0.203-0.444c-0.02-0.628-0.283-1.336-0.789-1.861
		c-0.667-0.709-2.246-1.255-4.107-1.255c-1.76,0-2.914,0.445-3.804,1.255c-1.477,1.355-1.861,3.277-1.861,5.24
		c0,4.815,3.662,7.203,6.374,7.203c1.801,0,2.893-0.203,3.703-1.134c0.344-0.384,0.607-0.971,0.688-1.335
		c0.061-0.324,0.101-0.405,0.263-0.405c0.142,0,0.182,0.142,0.182,0.304c0,0.243-0.243,2.003-0.445,2.691
		c-0.102,0.344-0.182,0.445-0.526,0.587c-0.809,0.323-2.347,0.465-3.642,0.465C114.169,165.343,111.842,164.736,110.001,163.138z"/>
	<path fill="#224156" d="M129.307,159.9c-0.101,0-0.142,0.04-0.182,0.162l-1.092,2.771c-0.203,0.506-0.304,0.991-0.304,1.234
		c0,0.364,0.182,0.627,0.81,0.627h0.303c0.243,0,0.304,0.041,0.304,0.162c0,0.162-0.122,0.202-0.344,0.202
		c-0.647,0-1.517-0.061-2.145-0.061c-0.223,0-1.335,0.061-2.388,0.061c-0.263,0-0.384-0.04-0.384-0.202
		c0-0.121,0.081-0.162,0.243-0.162c0.182,0,0.465-0.02,0.627-0.04c0.931-0.122,1.315-0.81,1.72-1.821l5.079-12.545
		c0.243-0.586,0.364-0.809,0.566-0.809c0.182,0,0.304,0.182,0.506,0.647c0.486,1.112,3.723,9.206,5.018,12.281
		c0.769,1.821,1.355,2.104,1.78,2.205c0.304,0.062,0.607,0.081,0.85,0.081c0.162,0,0.263,0.021,0.263,0.162
		c0,0.162-0.182,0.202-0.931,0.202c-0.729,0-2.206,0-3.824-0.04c-0.364-0.021-0.607-0.021-0.607-0.162
		c0-0.121,0.081-0.162,0.283-0.182c0.142-0.041,0.283-0.223,0.182-0.466l-1.619-4.168c-0.041-0.102-0.101-0.142-0.202-0.142H129.307
		z M133.435,158.889c0.102,0,0.122-0.061,0.102-0.121l-1.821-4.978c-0.02-0.081-0.041-0.183-0.101-0.183s-0.101,0.102-0.122,0.183
		l-1.861,4.957c-0.02,0.081,0,0.142,0.081,0.142H133.435z"/>
	<path fill="#224156" d="M146.043,150.896l-3.015,0.081c-1.174,0.04-1.659,0.142-1.963,0.587c-0.202,0.304-0.303,0.546-0.344,0.708
		s-0.101,0.243-0.223,0.243c-0.142,0-0.182-0.102-0.182-0.324c0-0.323,0.384-2.165,0.425-2.327c0.061-0.263,0.122-0.384,0.243-0.384
		c0.162,0,0.364,0.202,0.87,0.242c0.587,0.061,1.356,0.102,2.023,0.102h8.012c0.647,0,1.093-0.061,1.396-0.102
		c0.303-0.061,0.465-0.101,0.546-0.101c0.142,0,0.162,0.121,0.162,0.425c0,0.425-0.061,1.821-0.061,2.347
		c-0.021,0.202-0.061,0.324-0.182,0.324c-0.162,0-0.203-0.102-0.223-0.405l-0.021-0.223c-0.041-0.525-0.586-1.092-2.387-1.133
		l-2.549-0.061v8.296c0,1.861,0,3.46,0.101,4.33c0.061,0.566,0.182,1.011,0.789,1.092c0.283,0.041,0.729,0.081,1.032,0.081
		c0.223,0,0.324,0.061,0.324,0.162c0,0.142-0.162,0.202-0.384,0.202c-1.335,0-2.61-0.061-3.177-0.061
		c-0.465,0-1.74,0.061-2.549,0.061c-0.263,0-0.405-0.061-0.405-0.202c0-0.102,0.081-0.162,0.324-0.162
		c0.304,0,0.546-0.04,0.729-0.081c0.405-0.081,0.526-0.525,0.587-1.112c0.101-0.85,0.101-2.448,0.101-4.31V150.896z"/>
	<path fill="#224156" d="M159.745,155.631c0-3.075,0-3.642-0.041-4.289c-0.041-0.688-0.243-1.032-0.688-1.133
		c-0.223-0.062-0.486-0.081-0.729-0.081c-0.202,0-0.324-0.041-0.324-0.202c0-0.122,0.162-0.162,0.486-0.162
		c0.769,0,2.043,0.061,2.63,0.061c0.506,0,1.699-0.061,2.468-0.061c0.263,0,0.425,0.04,0.425,0.162c0,0.161-0.121,0.202-0.324,0.202
		c-0.202,0-0.364,0.02-0.607,0.061c-0.546,0.101-0.708,0.445-0.749,1.153c-0.041,0.647-0.041,1.214-0.041,4.289v3.562
		c0,1.962,0,3.561,0.081,4.431c0.061,0.547,0.202,0.91,0.809,0.991c0.283,0.041,0.729,0.081,1.032,0.081
		c0.222,0,0.324,0.061,0.324,0.162c0,0.142-0.162,0.202-0.385,0.202c-1.335,0-2.61-0.061-3.156-0.061
		c-0.465,0-1.74,0.061-2.549,0.061c-0.263,0-0.405-0.061-0.405-0.202c0-0.102,0.081-0.162,0.324-0.162
		c0.304,0,0.546-0.04,0.729-0.081c0.405-0.081,0.526-0.425,0.587-1.012c0.101-0.85,0.101-2.448,0.101-4.41V155.631z"/>
	<path fill="#224156" d="M168.508,157.411c0-3.459,2.286-7.931,8.356-7.931c5.038,0,8.174,2.934,8.174,7.567
		c0,4.633-3.237,8.295-8.376,8.295C170.855,165.343,168.508,160.993,168.508,157.411z M182.206,157.796
		c0-4.532-2.61-7.345-5.928-7.345c-2.327,0-4.978,1.295-4.978,6.333c0,4.209,2.327,7.547,6.212,7.547
		C178.928,164.331,182.206,163.644,182.206,157.796z"/>
	<path fill="#224156" d="M192.427,162.308c0.041,1.578,0.304,2.104,0.708,2.246c0.344,0.122,0.728,0.142,1.052,0.142
		c0.223,0,0.344,0.041,0.344,0.162c0,0.162-0.182,0.202-0.465,0.202c-1.315,0-2.125-0.061-2.509-0.061
		c-0.182,0-1.133,0.061-2.185,0.061c-0.263,0-0.445-0.021-0.445-0.202c0-0.121,0.121-0.162,0.324-0.162
		c0.263,0,0.627-0.02,0.91-0.101c0.526-0.162,0.607-0.749,0.627-2.509l0.182-11.918c0-0.404,0.061-0.688,0.263-0.688
		c0.223,0,0.405,0.263,0.749,0.627c0.243,0.263,3.318,3.5,6.272,6.435c1.376,1.375,4.107,4.289,4.452,4.612h0.101l-0.203-9.084
		c-0.02-1.234-0.202-1.619-0.688-1.821c-0.303-0.121-0.789-0.121-1.072-0.121c-0.243,0-0.324-0.061-0.324-0.183
		c0-0.162,0.223-0.182,0.526-0.182c1.052,0,2.023,0.061,2.448,0.061c0.222,0,0.991-0.061,1.982-0.061
		c0.263,0,0.466,0.02,0.466,0.182c0,0.122-0.122,0.183-0.364,0.183c-0.203,0-0.364,0-0.607,0.061
		c-0.566,0.162-0.728,0.587-0.749,1.72l-0.222,12.768c0,0.444-0.081,0.627-0.263,0.627c-0.223,0-0.465-0.223-0.688-0.445
		c-1.275-1.214-3.865-3.864-5.969-5.948c-2.206-2.186-4.451-4.654-4.815-5.038h-0.061L192.427,162.308z"/>
	<path fill="#224156" d="M221.387,159.9c-0.101,0-0.142,0.04-0.182,0.162l-1.092,2.771c-0.203,0.506-0.304,0.991-0.304,1.234
		c0,0.364,0.182,0.627,0.81,0.627h0.303c0.243,0,0.304,0.041,0.304,0.162c0,0.162-0.122,0.202-0.344,0.202
		c-0.647,0-1.518-0.061-2.145-0.061c-0.223,0-1.335,0.061-2.388,0.061c-0.263,0-0.384-0.04-0.384-0.202
		c0-0.121,0.081-0.162,0.243-0.162c0.182,0,0.465-0.02,0.627-0.04c0.931-0.122,1.315-0.81,1.72-1.821l5.079-12.545
		c0.243-0.586,0.364-0.809,0.566-0.809c0.182,0,0.304,0.182,0.506,0.647c0.485,1.112,3.723,9.206,5.018,12.281
		c0.769,1.821,1.356,2.104,1.781,2.205c0.304,0.062,0.607,0.081,0.85,0.081c0.162,0,0.263,0.021,0.263,0.162
		c0,0.162-0.182,0.202-0.931,0.202c-0.729,0-2.206,0-3.824-0.04c-0.364-0.021-0.607-0.021-0.607-0.162
		c0-0.121,0.081-0.162,0.283-0.182c0.142-0.041,0.283-0.223,0.182-0.466l-1.619-4.168c-0.041-0.102-0.101-0.142-0.202-0.142H221.387
		z M225.515,158.889c0.101,0,0.121-0.061,0.101-0.121l-1.821-4.978c-0.02-0.081-0.041-0.183-0.101-0.183s-0.101,0.102-0.121,0.183
		l-1.862,4.957c-0.02,0.081,0,0.142,0.081,0.142H225.515z"/>
	<path fill="#224156" d="M237.88,162.308c0.041,1.578,0.304,2.104,0.708,2.246c0.344,0.122,0.728,0.142,1.052,0.142
		c0.223,0,0.344,0.041,0.344,0.162c0,0.162-0.182,0.202-0.465,0.202c-1.315,0-2.125-0.061-2.509-0.061
		c-0.182,0-1.133,0.061-2.185,0.061c-0.263,0-0.445-0.021-0.445-0.202c0-0.121,0.121-0.162,0.324-0.162
		c0.263,0,0.627-0.02,0.91-0.101c0.526-0.162,0.607-0.749,0.627-2.509l0.182-11.918c0-0.404,0.061-0.688,0.263-0.688
		c0.223,0,0.405,0.263,0.749,0.627c0.243,0.263,3.318,3.5,6.272,6.435c1.376,1.375,4.107,4.289,4.452,4.612h0.101l-0.203-9.084
		c-0.02-1.234-0.202-1.619-0.688-1.821c-0.303-0.121-0.789-0.121-1.072-0.121c-0.243,0-0.324-0.061-0.324-0.183
		c0-0.162,0.223-0.182,0.526-0.182c1.052,0,2.023,0.061,2.448,0.061c0.222,0,0.991-0.061,1.982-0.061
		c0.263,0,0.466,0.02,0.466,0.182c0,0.122-0.122,0.183-0.364,0.183c-0.203,0-0.364,0-0.607,0.061
		c-0.566,0.162-0.728,0.587-0.749,1.72l-0.222,12.768c0,0.444-0.081,0.627-0.263,0.627c-0.223,0-0.465-0.223-0.688-0.445
		c-1.275-1.214-3.865-3.864-5.969-5.948c-2.206-2.186-4.451-4.654-4.815-5.038h-0.061L237.88,162.308z"/>
	<path fill="#224156" d="M257.936,155.631c0-3.075,0-3.642-0.041-4.289c-0.041-0.688-0.202-1.012-0.87-1.153
		c-0.162-0.041-0.506-0.061-0.789-0.061c-0.223,0-0.344-0.041-0.344-0.183s0.142-0.182,0.445-0.182c1.072,0,2.347,0.061,2.914,0.061
		c0.627,0,1.902-0.061,3.116-0.061c2.529,0,5.908,0,8.113,2.307c1.012,1.052,1.962,2.731,1.962,5.139
		c0,2.55-1.072,4.492-2.205,5.646c-0.931,0.951-3.035,2.388-6.778,2.388c-0.729,0-1.558-0.062-2.327-0.122
		c-0.769-0.061-1.477-0.121-1.983-0.121c-0.223,0-0.667,0-1.153,0.021c-0.465,0-0.991,0.04-1.396,0.04
		c-0.263,0-0.405-0.061-0.405-0.202c0-0.102,0.081-0.162,0.324-0.162c0.304,0,0.546-0.04,0.729-0.081
		c0.405-0.081,0.506-0.525,0.587-1.112c0.101-0.85,0.101-2.448,0.101-4.31V155.631z M260.465,157.856
		c0,2.145,0.021,3.703,0.041,4.087c0.021,0.506,0.061,1.315,0.223,1.538c0.263,0.385,1.052,0.81,2.65,0.81
		c2.064,0,3.44-0.405,4.654-1.457c1.295-1.112,1.7-2.954,1.7-5.038c0-2.569-1.072-4.229-1.942-5.059
		c-1.861-1.78-4.168-2.022-5.746-2.022c-0.405,0-1.153,0.061-1.315,0.142c-0.182,0.08-0.243,0.182-0.243,0.404
		c-0.021,0.688-0.021,2.448-0.021,4.047V157.856z"/>
	<path fill="#224156" d="M285.884,164.817c-0.324-0.142-0.385-0.243-0.385-0.688c0-1.112,0.081-2.327,0.102-2.65
		c0.02-0.304,0.081-0.526,0.243-0.526c0.182,0,0.202,0.183,0.202,0.344c0,0.264,0.081,0.688,0.182,1.032
		c0.445,1.497,1.639,2.044,2.894,2.044c1.821,0,2.711-1.234,2.711-2.307c0-0.991-0.303-1.923-1.983-3.237l-0.931-0.729
		c-2.226-1.74-2.994-3.156-2.994-4.795c0-2.227,1.861-3.824,4.674-3.824c1.315,0,2.165,0.202,2.691,0.344
		c0.182,0.04,0.283,0.102,0.283,0.243c0,0.263-0.081,0.85-0.081,2.428c0,0.445-0.061,0.606-0.223,0.606
		c-0.142,0-0.202-0.121-0.202-0.364c0-0.182-0.101-0.809-0.526-1.335c-0.304-0.385-0.891-0.991-2.206-0.991
		c-1.497,0-2.408,0.87-2.408,2.084c0,0.931,0.465,1.639,2.145,2.913l0.567,0.425c2.448,1.842,3.318,3.237,3.318,5.16
		c0,1.173-0.445,2.569-1.902,3.521c-1.012,0.647-2.145,0.829-3.217,0.829C287.664,165.343,286.754,165.201,285.884,164.817z"/>
	<path fill="#224156" d="M300.798,155.631c0-3.075,0-3.642-0.041-4.289c-0.041-0.688-0.202-1.012-0.87-1.153
		c-0.162-0.041-0.506-0.061-0.789-0.061c-0.223,0-0.344-0.041-0.344-0.183s0.142-0.182,0.445-0.182c1.072,0,2.347,0.061,2.914,0.061
		c0.83,0,2.003-0.061,2.934-0.061c2.529,0,3.439,0.85,3.763,1.153c0.445,0.425,1.012,1.335,1.012,2.407
		c0,2.873-2.104,4.896-4.978,4.896c-0.101,0-0.324,0-0.425-0.02c-0.101-0.021-0.243-0.041-0.243-0.183
		c0-0.162,0.142-0.223,0.566-0.223c1.133,0,2.711-1.274,2.711-3.338c0-0.668-0.061-2.023-1.194-3.035
		c-0.729-0.668-1.558-0.789-2.023-0.789c-0.303,0-0.607,0.02-0.789,0.081c-0.101,0.04-0.162,0.161-0.162,0.384v8.094
		c0,1.861,0,3.46,0.101,4.33c0.061,0.566,0.182,1.011,0.789,1.092c0.283,0.041,0.729,0.081,1.032,0.081
		c0.223,0,0.324,0.061,0.324,0.162c0,0.142-0.162,0.202-0.384,0.202c-1.335,0-2.61-0.061-3.136-0.061
		c-0.465,0-1.74,0.061-2.549,0.061c-0.263,0-0.405-0.061-0.405-0.202c0-0.102,0.081-0.162,0.324-0.162
		c0.304,0,0.546-0.04,0.729-0.081c0.405-0.081,0.506-0.525,0.587-1.112c0.101-0.85,0.101-2.448,0.101-4.31V155.631z"/>
	<path fill="#224156" d="M313.852,157.411c0-3.459,2.286-7.931,8.356-7.931c5.038,0,8.174,2.934,8.174,7.567
		c0,4.633-3.237,8.295-8.376,8.295C316.199,165.343,313.852,160.993,313.852,157.411z M327.549,157.796
		c0-4.532-2.61-7.345-5.928-7.345c-2.327,0-4.978,1.295-4.978,6.333c0,4.209,2.327,7.547,6.212,7.547
		C324.271,164.331,327.549,163.644,327.549,157.796z"/>
	<path fill="#224156" d="M336.639,155.631c0-3.075,0-3.642-0.041-4.289c-0.041-0.688-0.203-1.012-0.87-1.153
		c-0.162-0.041-0.506-0.061-0.789-0.061c-0.223,0-0.344-0.041-0.344-0.183s0.142-0.182,0.445-0.182c1.072,0,2.347,0.061,2.772,0.061
		c0.688,0,2.226-0.061,2.853-0.061c1.274,0,2.63,0.121,3.723,0.87c0.567,0.384,1.376,1.416,1.376,2.771
		c0,1.497-0.627,2.873-2.671,4.532c1.801,2.267,3.197,4.067,4.391,5.321c1.133,1.174,1.963,1.315,2.266,1.376
		c0.223,0.041,0.405,0.061,0.567,0.061c0.162,0,0.243,0.061,0.243,0.162c0,0.162-0.142,0.202-0.385,0.202h-1.922
		c-1.133,0-1.639-0.101-2.165-0.384c-0.87-0.466-1.639-1.417-2.772-2.975c-0.809-1.113-1.74-2.489-2.003-2.792
		c-0.101-0.122-0.223-0.142-0.364-0.142l-1.76-0.041c-0.101,0-0.162,0.041-0.162,0.162v0.283c0,1.882,0,3.48,0.102,4.33
		c0.061,0.587,0.182,1.031,0.789,1.112c0.303,0.041,0.749,0.081,0.991,0.081c0.162,0,0.243,0.061,0.243,0.162
		c0,0.142-0.142,0.202-0.404,0.202c-1.174,0-2.671-0.061-2.975-0.061c-0.384,0-1.659,0.061-2.468,0.061
		c-0.263,0-0.405-0.061-0.405-0.202c0-0.102,0.081-0.162,0.324-0.162c0.304,0,0.546-0.04,0.729-0.081
		c0.405-0.081,0.506-0.525,0.587-1.112c0.101-0.85,0.101-2.448,0.101-4.31V155.631z M339.026,157.229
		c0,0.223,0.041,0.304,0.182,0.364c0.425,0.142,1.032,0.202,1.538,0.202c0.809,0,1.072-0.081,1.437-0.344
		c0.607-0.445,1.193-1.376,1.193-3.035c0-2.873-1.902-3.702-3.096-3.702c-0.505,0-0.87,0.02-1.072,0.08
		c-0.142,0.041-0.182,0.122-0.182,0.283V157.229z"/>
	<path fill="#224156" d="M355.843,150.896l-3.015,0.081c-1.174,0.04-1.659,0.142-1.963,0.587c-0.202,0.304-0.303,0.546-0.344,0.708
		s-0.101,0.243-0.223,0.243c-0.142,0-0.182-0.102-0.182-0.324c0-0.323,0.384-2.165,0.425-2.327c0.061-0.263,0.122-0.384,0.243-0.384
		c0.162,0,0.364,0.202,0.87,0.242c0.587,0.061,1.356,0.102,2.023,0.102h8.013c0.647,0,1.092-0.061,1.396-0.102
		c0.304-0.061,0.466-0.101,0.547-0.101c0.142,0,0.161,0.121,0.161,0.425c0,0.425-0.061,1.821-0.061,2.347
		c-0.02,0.202-0.061,0.324-0.182,0.324c-0.162,0-0.202-0.102-0.223-0.405l-0.021-0.223c-0.04-0.525-0.587-1.092-2.388-1.133
		l-2.549-0.061v8.296c0,1.861,0,3.46,0.101,4.33c0.062,0.566,0.183,1.011,0.789,1.092c0.284,0.041,0.729,0.081,1.032,0.081
		c0.223,0,0.324,0.061,0.324,0.162c0,0.142-0.162,0.202-0.385,0.202c-1.336,0-2.61-0.061-3.177-0.061
		c-0.465,0-1.74,0.061-2.549,0.061c-0.263,0-0.405-0.061-0.405-0.202c0-0.102,0.081-0.162,0.324-0.162
		c0.304,0,0.546-0.04,0.729-0.081c0.405-0.081,0.526-0.525,0.587-1.112c0.101-0.85,0.101-2.448,0.101-4.31V150.896z"/>
	<path fill="#224156" d="M368.431,164.817c-0.323-0.142-0.384-0.243-0.384-0.688c0-1.112,0.081-2.327,0.101-2.65
		c0.021-0.304,0.081-0.526,0.243-0.526c0.182,0,0.202,0.183,0.202,0.344c0,0.264,0.081,0.688,0.183,1.032
		c0.444,1.497,1.639,2.044,2.893,2.044c1.821,0,2.712-1.234,2.712-2.307c0-0.991-0.304-1.923-1.983-3.237l-0.931-0.729
		c-2.226-1.74-2.994-3.156-2.994-4.795c0-2.227,1.861-3.824,4.674-3.824c1.315,0,2.165,0.202,2.69,0.344
		c0.183,0.04,0.283,0.102,0.283,0.243c0,0.263-0.08,0.85-0.08,2.428c0,0.445-0.062,0.606-0.223,0.606
		c-0.142,0-0.202-0.121-0.202-0.364c0-0.182-0.102-0.809-0.526-1.335c-0.304-0.385-0.891-0.991-2.206-0.991
		c-1.497,0-2.407,0.87-2.407,2.084c0,0.931,0.465,1.639,2.145,2.913l0.566,0.425c2.448,1.842,3.318,3.237,3.318,5.16
		c0,1.173-0.445,2.569-1.901,3.521c-1.012,0.647-2.146,0.829-3.218,0.829C370.212,165.343,369.301,165.201,368.431,164.817z"/>
	<path fill="#224156" d="M392.573,162.308c0.041,1.578,0.304,2.104,0.708,2.246c0.345,0.122,0.729,0.142,1.053,0.142
		c0.223,0,0.344,0.041,0.344,0.162c0,0.162-0.183,0.202-0.466,0.202c-1.314,0-2.124-0.061-2.509-0.061
		c-0.182,0-1.133,0.061-2.185,0.061c-0.264,0-0.445-0.021-0.445-0.202c0-0.121,0.121-0.162,0.323-0.162
		c0.264,0,0.628-0.02,0.911-0.101c0.525-0.162,0.606-0.749,0.627-2.509l0.182-11.918c0-0.404,0.062-0.688,0.264-0.688
		c0.223,0,0.404,0.263,0.748,0.627c0.243,0.263,3.318,3.5,6.272,6.435c1.376,1.375,4.107,4.289,4.451,4.612h0.102l-0.202-9.084
		c-0.021-1.234-0.203-1.619-0.688-1.821c-0.304-0.121-0.789-0.121-1.072-0.121c-0.243,0-0.323-0.061-0.323-0.183
		c0-0.162,0.223-0.182,0.525-0.182c1.053,0,2.023,0.061,2.448,0.061c0.223,0,0.991-0.061,1.983-0.061
		c0.263,0,0.465,0.02,0.465,0.182c0,0.122-0.121,0.183-0.364,0.183c-0.202,0-0.364,0-0.606,0.061
		c-0.566,0.162-0.729,0.587-0.749,1.72l-0.223,12.768c0,0.444-0.081,0.627-0.263,0.627c-0.223,0-0.466-0.223-0.688-0.445
		c-1.274-1.214-3.864-3.864-5.969-5.948c-2.205-2.186-4.451-4.654-4.815-5.038h-0.061L392.573,162.308z"/>
	<path fill="#224156" d="M412.629,155.631c0-3.075,0-3.642-0.041-4.289c-0.04-0.688-0.202-1.012-0.869-1.153
		c-0.162-0.041-0.506-0.061-0.79-0.061c-0.222,0-0.344-0.041-0.344-0.183s0.142-0.182,0.445-0.182c0.547,0,1.133,0.02,1.639,0.02
		c0.526,0.021,0.992,0.041,1.275,0.041c0.647,0,4.674,0,5.058-0.021c0.385-0.04,0.708-0.081,0.87-0.121
		c0.102-0.021,0.223-0.081,0.324-0.081c0.101,0,0.121,0.081,0.121,0.182c0,0.143-0.102,0.385-0.162,1.315
		c-0.02,0.202-0.061,1.093-0.101,1.336c-0.021,0.101-0.062,0.223-0.203,0.223s-0.182-0.102-0.182-0.284
		c0-0.142-0.021-0.485-0.121-0.728c-0.142-0.364-0.345-0.607-1.355-0.729c-0.345-0.041-2.469-0.081-2.874-0.081
		c-0.101,0-0.142,0.061-0.142,0.202v5.119c0,0.142,0.021,0.223,0.142,0.223c0.445,0,2.772,0,3.237-0.041
		c0.486-0.04,0.79-0.101,0.972-0.303c0.142-0.162,0.223-0.264,0.323-0.264c0.081,0,0.142,0.041,0.142,0.162s-0.08,0.445-0.161,1.477
		c-0.021,0.405-0.081,1.215-0.081,1.356c0,0.161,0,0.384-0.183,0.384c-0.142,0-0.182-0.081-0.182-0.182
		c-0.021-0.202-0.021-0.466-0.081-0.729c-0.102-0.404-0.385-0.708-1.133-0.789c-0.385-0.041-2.388-0.061-2.873-0.061
		c-0.102,0-0.122,0.081-0.122,0.202v1.599c0,0.688-0.02,2.549,0,3.136c0.041,1.396,0.364,1.699,2.429,1.699
		c0.525,0,1.376,0,1.901-0.242c0.526-0.243,0.77-0.668,0.911-1.497c0.04-0.223,0.08-0.304,0.223-0.304
		c0.161,0,0.161,0.162,0.161,0.364c0,0.465-0.161,1.841-0.263,2.246c-0.142,0.525-0.324,0.525-1.093,0.525
		c-1.518,0-2.63-0.04-3.5-0.061c-0.87-0.04-1.497-0.061-2.104-0.061c-0.223,0-0.668,0-1.153,0.021c-0.466,0-0.991,0.04-1.396,0.04
		c-0.263,0-0.404-0.061-0.404-0.202c0-0.102,0.081-0.162,0.324-0.162c0.303,0,0.546-0.04,0.728-0.081
		c0.405-0.081,0.506-0.525,0.587-1.112c0.102-0.85,0.102-2.448,0.102-4.31V155.631z"/>
	<path fill="#224156" d="M430.133,150.896l-3.015,0.081c-1.173,0.04-1.659,0.142-1.962,0.587c-0.203,0.304-0.304,0.546-0.345,0.708
		c-0.04,0.162-0.101,0.243-0.222,0.243c-0.142,0-0.183-0.102-0.183-0.324c0-0.323,0.385-2.165,0.425-2.327
		c0.061-0.263,0.121-0.384,0.243-0.384c0.162,0,0.364,0.202,0.87,0.242c0.587,0.061,1.355,0.102,2.023,0.102h8.012
		c0.647,0,1.093-0.061,1.396-0.102c0.304-0.061,0.465-0.101,0.546-0.101c0.142,0,0.162,0.121,0.162,0.425
		c0,0.425-0.061,1.821-0.061,2.347c-0.021,0.202-0.061,0.324-0.183,0.324c-0.161,0-0.202-0.102-0.223-0.405l-0.02-0.223
		c-0.041-0.525-0.587-1.092-2.388-1.133l-2.55-0.061v8.296c0,1.861,0,3.46,0.102,4.33c0.061,0.566,0.182,1.011,0.789,1.092
		c0.283,0.041,0.729,0.081,1.032,0.081c0.223,0,0.323,0.061,0.323,0.162c0,0.142-0.162,0.202-0.385,0.202
		c-1.335,0-2.609-0.061-3.176-0.061c-0.466,0-1.74,0.061-2.55,0.061c-0.263,0-0.404-0.061-0.404-0.202
		c0-0.102,0.081-0.162,0.323-0.162c0.304,0,0.547-0.04,0.729-0.081c0.404-0.081,0.526-0.525,0.587-1.112
		c0.101-0.85,0.101-2.448,0.101-4.31V150.896z"/>
	<path fill="#224156" d="M442.034,151.746c-0.243-0.748-0.466-1.234-0.749-1.437c-0.223-0.142-0.627-0.182-0.809-0.182
		c-0.203,0-0.324-0.021-0.324-0.183c0-0.142,0.162-0.182,0.445-0.182c1.052,0,2.165,0.061,2.347,0.061
		c0.183,0,1.072-0.061,2.246-0.061c0.283,0,0.425,0.061,0.425,0.182c0,0.162-0.162,0.183-0.364,0.183c-0.162,0-0.364,0-0.506,0.081
		c-0.182,0.08-0.223,0.223-0.223,0.444c0,0.264,0.203,0.951,0.445,1.862c0.344,1.335,2.226,7.466,2.59,8.599h0.061l3.926-10.562
		c0.202-0.566,0.344-0.729,0.506-0.729c0.223,0,0.323,0.304,0.587,0.951l4.208,10.197h0.061c0.364-1.355,1.983-6.697,2.691-9.064
		c0.142-0.466,0.202-0.891,0.202-1.174c0-0.323-0.183-0.606-0.972-0.606c-0.202,0-0.344-0.061-0.344-0.183
		c0-0.142,0.162-0.182,0.466-0.182c1.072,0,1.922,0.061,2.104,0.061c0.142,0,1.011-0.061,1.679-0.061
		c0.223,0,0.364,0.04,0.364,0.162c0,0.142-0.101,0.202-0.283,0.202c-0.202,0-0.485,0.02-0.708,0.101
		c-0.485,0.183-0.708,0.992-1.133,2.145c-0.931,2.55-3.056,8.984-4.047,12.019c-0.223,0.709-0.324,0.951-0.587,0.951
		c-0.202,0-0.323-0.242-0.627-0.991l-4.209-10.157h-0.04c-0.385,1.032-3.075,8.215-3.945,10.076
		c-0.385,0.83-0.486,1.072-0.729,1.072c-0.202,0-0.283-0.223-0.466-0.748L442.034,151.746z"/>
	<path fill="#224156" d="M465.611,157.411c0-3.459,2.286-7.931,8.355-7.931c5.038,0,8.175,2.934,8.175,7.567
		c0,4.633-3.237,8.295-8.377,8.295C467.958,165.343,465.611,160.993,465.611,157.411z M479.309,157.796
		c0-4.532-2.61-7.345-5.928-7.345c-2.327,0-4.978,1.295-4.978,6.333c0,4.209,2.326,7.547,6.211,7.547
		C476.031,164.331,479.309,163.644,479.309,157.796z"/>
	<path fill="#224156" d="M488.397,155.631c0-3.075,0-3.642-0.041-4.289c-0.04-0.688-0.202-1.012-0.869-1.153
		c-0.162-0.041-0.506-0.061-0.789-0.061c-0.223,0-0.345-0.041-0.345-0.183s0.142-0.182,0.445-0.182c1.072,0,2.347,0.061,2.772,0.061
		c0.688,0,2.226-0.061,2.853-0.061c1.274,0,2.63,0.121,3.723,0.87c0.566,0.384,1.376,1.416,1.376,2.771
		c0,1.497-0.627,2.873-2.671,4.532c1.801,2.267,3.197,4.067,4.391,5.321c1.133,1.174,1.963,1.315,2.267,1.376
		c0.223,0.041,0.404,0.061,0.566,0.061s0.242,0.061,0.242,0.162c0,0.162-0.142,0.202-0.384,0.202h-1.923
		c-1.133,0-1.639-0.101-2.164-0.384c-0.87-0.466-1.64-1.417-2.772-2.975c-0.81-1.113-1.74-2.489-2.003-2.792
		c-0.102-0.122-0.223-0.142-0.364-0.142l-1.761-0.041c-0.101,0-0.161,0.041-0.161,0.162v0.283c0,1.882,0,3.48,0.101,4.33
		c0.061,0.587,0.183,1.031,0.789,1.112c0.304,0.041,0.749,0.081,0.992,0.081c0.161,0,0.242,0.061,0.242,0.162
		c0,0.142-0.142,0.202-0.404,0.202c-1.174,0-2.671-0.061-2.975-0.061c-0.385,0-1.659,0.061-2.469,0.061
		c-0.263,0-0.404-0.061-0.404-0.202c0-0.102,0.081-0.162,0.324-0.162c0.303,0,0.546-0.04,0.728-0.081
		c0.405-0.081,0.506-0.525,0.587-1.112c0.102-0.85,0.102-2.448,0.102-4.31V155.631z M490.785,157.229
		c0,0.223,0.04,0.304,0.182,0.364c0.425,0.142,1.032,0.202,1.538,0.202c0.81,0,1.072-0.081,1.437-0.344
		c0.606-0.445,1.193-1.376,1.193-3.035c0-2.873-1.901-3.702-3.096-3.702c-0.506,0-0.87,0.02-1.072,0.08
		c-0.142,0.041-0.182,0.122-0.182,0.283V157.229z"/>
	<path fill="#224156" d="M508.169,156.521h0.101c0.688-0.749,3.643-3.764,4.229-4.451c0.567-0.668,1.012-1.174,1.012-1.518
		c0-0.223-0.081-0.364-0.283-0.405c-0.182-0.04-0.263-0.08-0.263-0.202c0-0.142,0.102-0.182,0.323-0.182
		c0.425,0,1.538,0.061,2.084,0.061c0.628,0,1.74-0.061,2.368-0.061c0.202,0,0.344,0.04,0.344,0.182s-0.102,0.183-0.304,0.183
		c-0.283,0-0.789,0.081-1.174,0.223c-0.627,0.242-1.314,0.667-2.185,1.518c-0.628,0.606-3.683,3.642-4.371,4.37
		c0.729,0.951,4.694,5.22,5.483,5.969c0.891,0.85,1.801,1.76,2.894,2.185c0.607,0.243,1.012,0.304,1.255,0.304
		c0.142,0,0.263,0.041,0.263,0.162c0,0.142-0.102,0.202-0.485,0.202h-1.761c-0.606,0-0.971,0-1.396-0.04
		c-1.092-0.102-1.639-0.547-2.509-1.315c-0.89-0.789-4.876-5.463-5.301-6.05l-0.223-0.304h-0.101v1.842c0,1.861,0,3.46,0.061,4.33
		c0.04,0.566,0.223,1.011,0.729,1.092c0.283,0.041,0.728,0.081,0.991,0.081c0.162,0,0.263,0.061,0.263,0.162
		c0,0.142-0.162,0.202-0.385,0.202c-1.133,0-2.407-0.061-2.913-0.061c-0.466,0-1.74,0.061-2.55,0.061
		c-0.263,0-0.404-0.061-0.404-0.202c0-0.102,0.081-0.162,0.324-0.162c0.303,0,0.546-0.04,0.728-0.081
		c0.405-0.081,0.506-0.525,0.587-1.112c0.102-0.85,0.102-2.448,0.102-4.31v-3.562c0-3.075,0-3.642-0.041-4.289
		c-0.04-0.688-0.202-1.012-0.869-1.153c-0.162-0.041-0.506-0.061-0.789-0.061c-0.223,0-0.345-0.041-0.345-0.183
		s0.142-0.182,0.445-0.182c1.072,0,2.347,0.061,2.833,0.061c0.485,0,1.76-0.061,2.448-0.061c0.283,0,0.425,0.04,0.425,0.182
		s-0.122,0.183-0.283,0.183c-0.202,0-0.324,0.02-0.566,0.061c-0.547,0.101-0.709,0.445-0.749,1.153
		c-0.04,0.647-0.04,1.214-0.04,4.289V156.521z"/>
	<path fill="#224156" d="M522.254,164.817c-0.323-0.142-0.384-0.243-0.384-0.688c0-1.112,0.081-2.327,0.101-2.65
		c0.021-0.304,0.081-0.526,0.243-0.526c0.182,0,0.202,0.183,0.202,0.344c0,0.264,0.081,0.688,0.183,1.032
		c0.444,1.497,1.639,2.044,2.893,2.044c1.821,0,2.712-1.234,2.712-2.307c0-0.991-0.304-1.923-1.983-3.237l-0.931-0.729
		c-2.226-1.74-2.994-3.156-2.994-4.795c0-2.227,1.861-3.824,4.674-3.824c1.315,0,2.165,0.202,2.69,0.344
		c0.183,0.04,0.283,0.102,0.283,0.243c0,0.263-0.08,0.85-0.08,2.428c0,0.445-0.062,0.606-0.223,0.606
		c-0.142,0-0.203-0.121-0.203-0.364c0-0.182-0.101-0.809-0.525-1.335c-0.304-0.385-0.891-0.991-2.206-0.991
		c-1.497,0-2.407,0.87-2.407,2.084c0,0.931,0.465,1.639,2.145,2.913l0.566,0.425c2.448,1.842,3.318,3.237,3.318,5.16
		c0,1.173-0.445,2.569-1.901,3.521c-1.012,0.647-2.146,0.829-3.218,0.829C524.035,165.343,523.124,165.201,522.254,164.817z"/>
	<path fill="#224156" d="M545.264,155.631c0-3.075,0-3.642-0.041-4.289c-0.04-0.688-0.242-1.032-0.688-1.133
		c-0.223-0.062-0.485-0.081-0.729-0.081c-0.202,0-0.323-0.041-0.323-0.202c0-0.122,0.161-0.162,0.485-0.162
		c0.769,0,2.043,0.061,2.63,0.061c0.506,0,1.7-0.061,2.469-0.061c0.263,0,0.425,0.04,0.425,0.162c0,0.161-0.121,0.202-0.323,0.202
		c-0.203,0-0.364,0.02-0.607,0.061c-0.546,0.101-0.708,0.445-0.749,1.153c-0.04,0.647-0.04,1.214-0.04,4.289v3.562
		c0,1.962,0,3.561,0.081,4.431c0.061,0.547,0.202,0.91,0.81,0.991c0.283,0.041,0.729,0.081,1.031,0.081
		c0.223,0,0.324,0.061,0.324,0.162c0,0.142-0.162,0.202-0.385,0.202c-1.335,0-2.61-0.061-3.156-0.061
		c-0.466,0-1.74,0.061-2.55,0.061c-0.263,0-0.404-0.061-0.404-0.202c0-0.102,0.081-0.162,0.324-0.162
		c0.303,0,0.546-0.04,0.728-0.081c0.405-0.081,0.526-0.425,0.587-1.012c0.102-0.85,0.102-2.448,0.102-4.41V155.631z"/>
	<path fill="#224156" d="M557.567,162.308c0.041,1.578,0.304,2.104,0.708,2.246c0.345,0.122,0.729,0.142,1.053,0.142
		c0.223,0,0.344,0.041,0.344,0.162c0,0.162-0.183,0.202-0.466,0.202c-1.314,0-2.124-0.061-2.509-0.061
		c-0.182,0-1.133,0.061-2.185,0.061c-0.264,0-0.445-0.021-0.445-0.202c0-0.121,0.121-0.162,0.323-0.162
		c0.264,0,0.628-0.02,0.911-0.101c0.525-0.162,0.606-0.749,0.627-2.509l0.182-11.918c0-0.404,0.062-0.688,0.264-0.688
		c0.223,0,0.404,0.263,0.748,0.627c0.243,0.263,3.318,3.5,6.272,6.435c1.376,1.375,4.107,4.289,4.451,4.612h0.102l-0.202-9.084
		c-0.021-1.234-0.203-1.619-0.688-1.821c-0.304-0.121-0.789-0.121-1.072-0.121c-0.243,0-0.323-0.061-0.323-0.183
		c0-0.162,0.223-0.182,0.525-0.182c1.053,0,2.023,0.061,2.448,0.061c0.223,0,0.991-0.061,1.983-0.061
		c0.263,0,0.465,0.02,0.465,0.182c0,0.122-0.121,0.183-0.364,0.183c-0.202,0-0.364,0-0.606,0.061
		c-0.566,0.162-0.729,0.587-0.749,1.72l-0.223,12.768c0,0.444-0.081,0.627-0.263,0.627c-0.223,0-0.466-0.223-0.688-0.445
		c-1.274-1.214-3.864-3.864-5.969-5.948c-2.205-2.186-4.451-4.654-4.815-5.038h-0.061L557.567,162.308z"/>
	<path fill="#224156" d="M583.513,157.411c0-3.459,2.286-7.931,8.355-7.931c5.038,0,8.175,2.934,8.175,7.567
		c0,4.633-3.237,8.295-8.377,8.295C585.859,165.343,583.513,160.993,583.513,157.411z M597.21,157.796
		c0-4.532-2.61-7.345-5.928-7.345c-2.327,0-4.978,1.295-4.978,6.333c0,4.209,2.326,7.547,6.211,7.547
		C593.933,164.331,597.21,163.644,597.21,157.796z"/>
	<path fill="#224156" d="M607.433,162.308c0.041,1.578,0.304,2.104,0.708,2.246c0.345,0.122,0.729,0.142,1.053,0.142
		c0.223,0,0.344,0.041,0.344,0.162c0,0.162-0.183,0.202-0.466,0.202c-1.314,0-2.124-0.061-2.509-0.061
		c-0.182,0-1.133,0.061-2.185,0.061c-0.264,0-0.445-0.021-0.445-0.202c0-0.121,0.121-0.162,0.323-0.162
		c0.264,0,0.628-0.02,0.911-0.101c0.525-0.162,0.606-0.749,0.627-2.509l0.182-11.918c0-0.404,0.062-0.688,0.264-0.688
		c0.223,0,0.404,0.263,0.748,0.627c0.243,0.263,3.318,3.5,6.272,6.435c1.376,1.375,4.107,4.289,4.451,4.612h0.102l-0.202-9.084
		c-0.021-1.234-0.203-1.619-0.688-1.821c-0.304-0.121-0.789-0.121-1.072-0.121c-0.243,0-0.323-0.061-0.323-0.183
		c0-0.162,0.223-0.182,0.525-0.182c1.053,0,2.023,0.061,2.448,0.061c0.223,0,0.991-0.061,1.983-0.061
		c0.263,0,0.465,0.02,0.465,0.182c0,0.122-0.121,0.183-0.364,0.183c-0.202,0-0.364,0-0.606,0.061
		c-0.566,0.162-0.729,0.587-0.749,1.72l-0.223,12.768c0,0.444-0.081,0.627-0.263,0.627c-0.223,0-0.466-0.223-0.688-0.445
		c-1.274-1.214-3.864-3.864-5.969-5.948c-2.205-2.186-4.451-4.654-4.815-5.038h-0.061L607.433,162.308z"/>
	<path fill="#224156" d="M627.488,155.631c0-3.075,0-3.642-0.041-4.289c-0.04-0.688-0.202-1.012-0.869-1.153
		c-0.162-0.041-0.506-0.061-0.79-0.061c-0.222,0-0.344-0.041-0.344-0.183s0.142-0.182,0.445-0.182c0.547,0,1.133,0.02,1.639,0.02
		c0.526,0.021,0.992,0.041,1.275,0.041c0.647,0,4.674,0,5.058-0.021c0.385-0.04,0.708-0.081,0.87-0.121
		c0.102-0.021,0.223-0.081,0.324-0.081c0.101,0,0.121,0.081,0.121,0.182c0,0.143-0.102,0.385-0.162,1.315
		c-0.02,0.202-0.061,1.093-0.101,1.336c-0.021,0.101-0.062,0.223-0.203,0.223s-0.182-0.102-0.182-0.284
		c0-0.142-0.021-0.485-0.121-0.728c-0.142-0.364-0.345-0.607-1.355-0.729c-0.345-0.041-2.469-0.081-2.874-0.081
		c-0.101,0-0.142,0.061-0.142,0.202v5.119c0,0.142,0.021,0.223,0.142,0.223c0.445,0,2.772,0,3.237-0.041
		c0.486-0.04,0.79-0.101,0.972-0.303c0.142-0.162,0.223-0.264,0.323-0.264c0.081,0,0.142,0.041,0.142,0.162s-0.08,0.445-0.161,1.477
		c-0.021,0.405-0.081,1.215-0.081,1.356c0,0.161,0,0.384-0.183,0.384c-0.142,0-0.182-0.081-0.182-0.182
		c-0.021-0.202-0.021-0.466-0.081-0.729c-0.102-0.404-0.385-0.708-1.133-0.789c-0.385-0.041-2.388-0.061-2.873-0.061
		c-0.102,0-0.122,0.081-0.122,0.202v1.599c0,0.688-0.02,2.549,0,3.136c0.041,1.396,0.364,1.699,2.429,1.699
		c0.525,0,1.376,0,1.901-0.242c0.526-0.243,0.77-0.668,0.911-1.497c0.04-0.223,0.08-0.304,0.223-0.304
		c0.161,0,0.161,0.162,0.161,0.364c0,0.465-0.161,1.841-0.263,2.246c-0.142,0.525-0.324,0.525-1.093,0.525
		c-1.518,0-2.63-0.04-3.5-0.061c-0.87-0.04-1.497-0.061-2.104-0.061c-0.223,0-0.668,0-1.153,0.021c-0.466,0-0.991,0.04-1.396,0.04
		c-0.263,0-0.404-0.061-0.404-0.202c0-0.102,0.081-0.162,0.324-0.162c0.303,0,0.546-0.04,0.728-0.081
		c0.405-0.081,0.506-0.525,0.587-1.112c0.102-0.85,0.102-2.448,0.102-4.31V155.631z"/>
</g>
<path fill="#224156" d="M0,7.09c0,0,2.684-0.084,7.716-0.243C12.749,6.702,20.128,6.424,29.521,6.2
	c9.393-0.228,20.799-0.505,33.883-0.823c13.083-0.288,27.844-0.614,43.946-0.859c16.103-0.28,33.547-0.583,51.998-0.775
	c18.451-0.219,37.908-0.498,58.036-0.605c10.064-0.074,20.296-0.15,30.653-0.226c10.358-0.086,20.841-0.156,31.409-0.163
	c21.134-0.051,42.604-0.104,64.074-0.156c21.47,0.051,42.939,0.102,64.075,0.152c5.282,0.013,10.546,0.026,15.782,0.039
	c5.236,0.039,10.446,0.078,15.625,0.116c10.358,0.077,20.591,0.153,30.654,0.227c20.128,0.11,39.585,0.378,58.036,0.604
	c9.226,0.119,18.199,0.235,26.879,0.347c8.681,0.148,17.067,0.291,25.118,0.428c16.104,0.247,30.864,0.57,43.947,0.862
	c13.083,0.319,24.488,0.598,33.882,0.827c9.393,0.226,16.774,0.504,21.806,0.651c5.032,0.159,7.716,0.244,7.716,0.244
	s-2.684,0.085-7.716,0.244c-5.031,0.147-12.413,0.425-21.806,0.651c-9.394,0.229-20.799,0.508-33.882,0.827
	c-13.083,0.292-27.844,0.615-43.947,0.862c-8.051,0.137-16.438,0.28-25.118,0.428c-8.68,0.112-17.653,0.228-26.879,0.347
	c-18.451,0.226-37.908,0.494-58.036,0.604c-10.063,0.074-20.296,0.15-30.654,0.227c-5.179,0.038-10.389,0.077-15.625,0.116
	c-5.236,0.013-10.5,0.026-15.782,0.039c-21.136,0.05-42.605,0.101-64.075,0.152c-21.47-0.052-42.94-0.105-64.074-0.156
	c-10.568-0.007-21.051-0.077-31.409-0.163c-10.357-0.076-20.589-0.152-30.653-0.226c-20.128-0.107-39.585-0.386-58.036-0.605
	c-18.451-0.192-35.895-0.495-51.998-0.775C91.249,9.417,76.487,9.091,63.404,8.803C50.32,8.485,38.915,8.208,29.521,7.98
	C20.128,7.756,12.749,7.479,7.716,7.333C2.685,7.174,0,7.09,0,7.09"/>
<path fill="#224156" d="M0,127.167c0,0,2.684-0.084,7.716-0.243c5.032-0.146,12.412-0.423,21.805-0.647
	c9.393-0.228,20.799-0.505,33.883-0.823c13.083-0.287,27.844-0.613,43.946-0.858c16.103-0.28,33.547-0.583,51.998-0.775
	c18.451-0.219,37.908-0.498,58.036-0.604c10.064-0.074,20.296-0.15,30.653-0.227c10.358-0.086,20.841-0.155,31.409-0.163
	c21.134-0.051,42.604-0.104,64.074-0.155c21.47,0.051,42.939,0.102,64.075,0.151c5.282,0.014,10.546,0.026,15.782,0.039
	c5.236,0.039,10.446,0.078,15.625,0.116c10.358,0.077,20.591,0.153,30.654,0.227c20.128,0.11,39.585,0.379,58.036,0.604
	c9.226,0.119,18.199,0.235,26.879,0.347c8.681,0.148,17.067,0.291,25.118,0.429c16.104,0.247,30.864,0.569,43.947,0.861
	c13.083,0.319,24.488,0.599,33.882,0.827c9.393,0.227,16.774,0.504,21.806,0.651c5.032,0.159,7.716,0.244,7.716,0.244
	s-2.684,0.085-7.716,0.243c-5.031,0.147-12.413,0.426-21.806,0.651c-9.394,0.229-20.799,0.508-33.882,0.827
	c-13.083,0.292-27.844,0.615-43.947,0.862c-8.051,0.137-16.438,0.279-25.118,0.428c-8.68,0.112-17.653,0.228-26.879,0.347
	c-18.451,0.227-37.908,0.494-58.036,0.604c-10.063,0.073-20.296,0.149-30.654,0.227c-5.179,0.038-10.389,0.077-15.625,0.116
	c-5.236,0.013-10.5,0.026-15.782,0.039c-21.136,0.05-42.605,0.101-64.075,0.152c-21.47-0.053-42.94-0.105-64.074-0.156
	c-10.568-0.007-21.051-0.077-31.409-0.163c-10.357-0.076-20.589-0.152-30.653-0.227c-20.128-0.106-39.585-0.386-58.036-0.604
	c-18.451-0.192-35.895-0.495-51.998-0.775c-16.102-0.245-30.863-0.57-43.946-0.858c-13.084-0.318-24.49-0.596-33.883-0.823
	c-9.393-0.224-16.773-0.502-21.805-0.647C2.685,127.251,0,127.167,0,127.167"/>
</svg>
