<svg xmlns="http://www.w3.org/2000/svg" viewBox="0 0 896.6 290.67" role="img" aria-label="MicroMasters"><title class="svg-title">MicroMasters</title><g><g><path class="mm-logo-fill" d="M57.12,295.69l-34.84-91H21.72q1,10.82,1,25.71v65.33h-11V193h18l32.52,84.72h0.56L95.55,193h17.84v102.7H101.45V229.52q0-11.38,1-24.73h-0.56l-35.12,90.9H57.12Z" transform="translate(-9.93 -6.42)"></path><path class="mm-logo-fill" d="M127.31,197.83q0-4,2-5.87a7.28,7.28,0,0,1,9.76,0q2,1.9,2,5.83t-2,5.87a6.8,6.8,0,0,1-4.85,1.93,6.73,6.73,0,0,1-4.92-1.93Q127.31,201.77,127.31,197.83ZM140,295.69H128.29v-77H140v77Z" transform="translate(-9.93 -6.42)"></path><path class="mm-logo-fill" d="M186.82,297.09q-16.72,0-25.89-10.29t-9.17-29.12q0-19.32,9.31-29.86t26.52-10.54a52.67,52.67,0,0,1,11.1,1.19,36.66,36.66,0,0,1,8.71,2.81l-3.58,9.9a55.07,55.07,0,0,0-8.43-2.56,37.73,37.73,0,0,0-8.08-1q-23.46,0-23.46,29.93,0,14.19,5.73,21.78t17,7.59a51.85,51.85,0,0,0,19.74-4.14v10.33Q198.55,297.09,186.82,297.09Z" transform="translate(-9.93 -6.42)"></path><path class="mm-logo-fill" d="M253.91,217.29a45.64,45.64,0,0,1,9.2.84L261.5,229a39.74,39.74,0,0,0-8.43-1.05q-9.34,0-16,7.59t-6.64,18.9v41.31H218.79v-77h9.62L229.75,233h0.56a33.83,33.83,0,0,1,10.33-11.59A23.25,23.25,0,0,1,253.91,217.29Z" transform="translate(-9.93 -6.42)"></path><path class="mm-logo-fill" d="M333.9,257.12q0,18.83-9.48,29.4t-26.2,10.57a34.7,34.7,0,0,1-18.33-4.85,32,32,0,0,1-12.36-13.91q-4.36-9.06-4.36-21.21,0-18.82,9.41-29.33t26.13-10.5q16.16,0,25.68,10.75T333.9,257.12Zm-58.66,0q0,14.75,5.9,22.48t17.35,7.73q11.45,0,17.39-7.69t5.94-22.51q0-14.68-5.94-22.3t-17.53-7.62q-11.45,0-17.28,7.52T275.24,257.12Z" transform="translate(-9.93 -6.42)"></path><path class="mm-logo-fill" d="M391.19,295.69l-24.73-80.57h-0.63q1.33,24.59,1.33,32.81v47.77H347.71V193h29.64l24.31,78.54h0.42L427.86,193h29.64v102.7H437.2V247.08q0-3.44.11-7.94t0.95-23.88h-0.63l-26.48,80.43h-20Z" transform="translate(-9.93 -6.42)"></path><path class="mm-logo-fill" d="M522.92,295.69L518.77,285h-0.56q-5.41,6.81-11.13,9.45t-14.93,2.63q-11.31,0-17.81-6.46t-6.5-18.4q0-12.5,8.75-18.44T503,247.22l13.63-.42v-3.44q0-11.94-12.22-11.94-9.41,0-22.13,5.69l-7.1-14.47a63.85,63.85,0,0,1,30.07-7.1q15.81,0,24.24,6.88t8.43,20.93v52.33h-15Zm-6.32-36.39-8.29.28q-9.34.28-13.91,3.37t-4.57,9.41q0,9.06,10.4,9.06,7.44,0,11.91-4.29t4.46-11.38V259.3Z" transform="translate(-9.93 -6.42)"></path><path class="mm-logo-fill" d="M607.54,272.37q0,12.08-8.39,18.4T574,297.09a78.87,78.87,0,0,1-14.61-1.16,55.17,55.17,0,0,1-11.31-3.41v-17.7a74.61,74.61,0,0,0,13.45,4.71,54.47,54.47,0,0,0,13.17,1.9q11.66,0,11.66-6.74a5.63,5.63,0,0,0-1.55-4.11,22.42,22.42,0,0,0-5.34-3.58q-3.79-2-10.12-4.67-9.06-3.79-13.31-7a19.74,19.74,0,0,1-6.18-7.41A24.44,24.44,0,0,1,548,237.59q0-10.47,8.11-16.19t23-5.73a65.33,65.33,0,0,1,27.61,6.18l-6.46,15.45q-5.9-2.53-11-4.14a34.66,34.66,0,0,0-10.47-1.62q-9.48,0-9.48,5.13,0,2.88,3.06,5t13.38,6.25q9.2,3.72,13.49,7a20.6,20.6,0,0,1,6.32,7.45A22.89,22.89,0,0,1,607.54,272.37Z" transform="translate(-9.93 -6.42)"></path><path class="mm-logo-fill" d="M656.62,280a46.41,46.41,0,0,0,13.49-2.46v15.95q-8,3.58-19.67,3.58-12.86,0-18.72-6.5t-5.87-19.49V233.24H615.6v-9.06L627.4,217l6.18-16.58h13.7v16.72h22v16.09h-22V271.1q0,4.57,2.56,6.74A10.11,10.11,0,0,0,656.62,280Z" transform="translate(-9.93 -6.42)"></path><path class="mm-logo-fill" d="M717.21,297.09q-19,0-29.64-10.47T676.89,257q0-19.74,9.87-30.52t27.29-10.78q16.65,0,25.92,9.48t9.27,26.2v10.4H698.6q0.35,9.13,5.41,14.26t14.19,5.13a58.91,58.91,0,0,0,13.42-1.48A67.12,67.12,0,0,0,744.82,275v16.58a50.32,50.32,0,0,1-12,4.18A75.75,75.75,0,0,1,717.21,297.09Zm-3-66.17q-6.81,0-10.68,4.32t-4.43,12.26h30.07Q729,239.56,725,235.24T714.19,230.92Z" transform="translate(-9.93 -6.42)"></path><path class="mm-logo-fill" d="M803.31,215.68a34.56,34.56,0,0,1,7.24.63l-1.62,20.09a24.6,24.6,0,0,0-6.32-.7q-10.26,0-16,5.27t-5.73,14.75v40H759.48V217.15H775.7l3.16,13.21h1.05a29.53,29.53,0,0,1,9.87-10.64A24.34,24.34,0,0,1,803.31,215.68Z" transform="translate(-9.93 -6.42)"></path><path class="mm-logo-fill" d="M876.72,272.37q0,12.08-8.39,18.4t-25.11,6.32a78.87,78.87,0,0,1-14.61-1.16,55.17,55.17,0,0,1-11.31-3.41v-17.7a74.61,74.61,0,0,0,13.45,4.71,54.47,54.47,0,0,0,13.17,1.9q11.66,0,11.66-6.74a5.63,5.63,0,0,0-1.55-4.11,22.42,22.42,0,0,0-5.34-3.58q-3.79-2-10.12-4.67-9.06-3.79-13.31-7a19.74,19.74,0,0,1-6.18-7.41,24.44,24.44,0,0,1-1.93-10.29q0-10.47,8.11-16.19t23-5.73a65.33,65.33,0,0,1,27.61,6.18l-6.46,15.45q-5.9-2.53-11-4.14a34.66,34.66,0,0,0-10.47-1.62q-9.48,0-9.48,5.13,0,2.88,3.06,5t13.38,6.25q9.2,3.72,13.49,7a20.6,20.6,0,0,1,6.32,7.45A22.89,22.89,0,0,1,876.72,272.37Z" transform="translate(-9.93 -6.42)"></path></g><path class="mm-logo-fill" d="M889.15,225.06h-1.51V213.76h-3.81v-1.37H893v1.37h-3.85v11.29Zm10.54,0-3.88-10.7H895.7l0.07,3.53v7.17h-1.44V212.39h2.2L900.4,223l3.93-10.64h2.2v12.66H905v-7l0.07-3.64H905l-4,10.62h-1.3Z" transform="translate(-9.93 -6.42)"></path><rect class="mm-logo-fill" x="9.94" y="153.97" width="323.42" height="8.59" transform="translate(-10.18 -6.16) rotate(-0.09)"></rect><path class="mm-logo-fill" d="M22.7,130.59a152.9,152.9,0,0,1,28.13-56,320,320,0,0,0,31.88,8,148.52,148.52,0,0,0-17.94,48.06h9.8A139.44,139.44,0,0,1,92.73,84.42a458.27,458.27,0,0,0,75.51,6.78v39.4h9.6V91.17a461.8,461.8,0,0,0,75.82-7.25A138.83,138.83,0,0,1,272,130.59h9.8A147.91,147.91,0,0,0,263.68,82q15.46-3.14,31.49-7.6a152.87,152.87,0,0,1,28.26,56.18h10C315.17,57.48,249.24,6.42,173.07,6.42S31,57.47,12.74,130.59h10ZM288.28,66.36q-15.29,4.1-30.06,7c-19.06-27.94-44.56-45.7-62.54-55.65A155.67,155.67,0,0,1,288.28,66.36ZM177.84,19.43c14.19,6.34,46.49,23.44,69.95,55.79a452.28,452.28,0,0,1-69.95,6.37V19.43Zm-9.6,62.19a448.85,448.85,0,0,1-69.65-5.92c23.26-32.23,55.26-49.52,69.65-56.07v62ZM151.16,17.56c-18,10-43.79,28-63,56.28C74.39,71.2,64,68.45,57.63,66.59A155.62,155.62,0,0,1,151.16,17.56Z" transform="translate(-9.93 -6.42)"></path></g></svg>