<?xml version="1.0" encoding="utf-8"?>
<!-- Generator: Adobe Illustrator 16.0.0, SVG Export Plug-In . SVG Version: 6.00 Build 0)  -->
<!DOCTYPE svg PUBLIC "-//W3C//DTD SVG 1.1//EN" "http://www.w3.org/Graphics/SVG/1.1/DTD/svg11.dtd">
<svg version="1.1" id="Layer_1" xmlns="http://www.w3.org/2000/svg" xmlns:xlink="http://www.w3.org/1999/xlink" x="0px" y="0px"
	 width="512px" height="512px" viewBox="0 0 512 512" enable-background="new 0 0 512 512" xml:space="preserve">
<g>
	<g>
		<g>
			<path fill="#627F98" d="M110.933,238.933h25.6c4.71,0,8.533-3.823,8.533-8.533s-3.823-8.533-8.533-8.533h-25.6
				c-4.71,0-8.533,3.823-8.533,8.533S106.223,238.933,110.933,238.933z"/>
			<path fill="#627F98" d="M110.933,136.533H179.2c4.71,0,8.533-3.823,8.533-8.533s-3.823-8.533-8.533-8.533h-68.267
				c-4.71,0-8.533,3.823-8.533,8.533S106.223,136.533,110.933,136.533z"/>
			<path fill="#627F98" d="M264.533,221.867H179.2c-4.71,0-8.533,3.823-8.533,8.533s3.823,8.533,8.533,8.533h85.333
				c4.71,0,8.533-3.823,8.533-8.533S269.244,221.867,264.533,221.867z"/>
			<path fill="#627F98" d="M256,375.467H59.733c-14.592,0-25.6-11.008-25.6-25.6v-256c0-4.71-3.823-8.533-8.533-8.533
				s-8.533,3.823-8.533,8.533v256c0,23.927,18.739,42.667,42.667,42.667H256c4.71,0,8.533-3.823,8.533-8.533
				S260.71,375.467,256,375.467z"/>
			<path fill="#627F98" d="M110.933,187.733h153.6c4.71,0,8.533-3.823,8.533-8.533s-3.823-8.533-8.533-8.533h-153.6
				c-4.71,0-8.533,3.823-8.533,8.533S106.223,187.733,110.933,187.733z"/>
			<path fill="#627F98" d="M341.257,280.448c-0.58-4.224-4.19-7.382-8.457-7.382H110.933c-4.71,0-8.533,3.824-8.533,8.533
				c0,21.437,19.959,59.733,59.733,59.733h111.744l16.299,162.987c0.444,4.395,4.147,7.68,8.482,7.68
				c0.281,0,0.572-0.017,0.861-0.043c4.686-0.469,8.107-4.651,7.638-9.344L290.09,331.946c-0.435-4.361-4.105-7.681-8.49-7.681
				h-93.868v-34.133H325.35l24.594,180.353c0.631,4.676,4.957,7.962,9.608,7.305c4.668-0.64,7.937-4.941,7.306-9.609
				L341.257,280.448z M170.667,324.267h-8.533c-23.876,0-37.018-20.181-41.19-34.133h49.724L170.667,324.267L170.667,324.267z"/>
			<path fill="#627F98" d="M247.467,136.533c4.71,0,8.533-3.823,8.533-8.533s-3.823-8.533-8.533-8.533h-34.133
				c-4.71,0-8.533,3.823-8.533,8.533s3.823,8.533,8.533,8.533H247.467z"/>
			<path fill="#627F98" d="M358.4,153.6h-8.533c-4.71,0-8.533,3.823-8.533,8.533s3.823,8.533,8.533,8.533h8.533
				c4.709,0,8.533-3.823,8.533-8.533S363.109,153.6,358.4,153.6z"/>
			<path fill="#627F98" d="M418.688,273.178c-4.453-0.009-8.404,2.971-9.011,7.373l-25.6,187.631
				c-0.632,4.668,2.628,8.97,7.305,9.609c0.394,0.051,0.777,0.077,1.169,0.077c4.198,0,7.852-3.099,8.439-7.381l24.585-180.164
				c29.466,0.741,49.621,6.34,59.964,16.666c6.323,6.306,9.395,14.754,9.395,25.813v136.533c0,4.71,3.823,8.533,8.533,8.533
				s8.533-3.823,8.533-8.533V332.8c0-15.606-4.847-28.355-14.404-37.888C482.953,280.286,457.139,273.178,418.688,273.178z"/>
			<path fill="#627F98" d="M503.467,17.067H264.533V8.533C264.533,3.823,260.71,0,256,0s-8.533,3.823-8.533,8.533v8.533H8.533
				C3.823,17.067,0,20.89,0,25.6v34.133c0,4.71,3.823,8.533,8.533,8.533h443.732c4.71,0,8.533-3.823,8.533-8.533
				s-3.823-8.533-8.533-8.533h-435.2V34.133h477.867V51.2H486.4c-4.71,0-8.533,3.823-8.533,8.533v204.8
				c0,4.71,3.823,8.533,8.533,8.533s8.532-3.823,8.532-8.533V68.267h8.533c4.71,0,8.533-3.823,8.533-8.533V25.6
				C512,20.89,508.177,17.067,503.467,17.067z"/>
			<path fill="#627F98" d="M452.267,375.467c-4.71,0-8.532,3.823-8.532,8.533v119.467c0,4.71,3.822,8.533,8.532,8.533
				s8.533-3.823,8.533-8.533V384C460.8,379.29,456.977,375.467,452.267,375.467z"/>
			<path fill="#627F98" d="M392.533,290.133c0-9.412-7.654-17.066-17.067-17.066c-9.411,0-17.067,7.654-17.067,17.066
				c0,6.289,3.457,11.733,8.533,14.694v62.105c0,4.71,3.823,8.533,8.533,8.533s8.533-3.823,8.533-8.533v-62.105
				C389.077,301.867,392.533,296.422,392.533,290.133z"/>
			<path fill="#627F98" d="M401.066,153.6h-8.532c-4.71,0-8.533,3.823-8.533,8.533s3.823,8.533,8.533,8.533h8.532
				c4.711,0,8.533-3.823,8.533-8.533S405.777,153.6,401.066,153.6z"/>
			<path fill="#627F98" d="M392.533,85.333H358.4c-28.237,0-51.2,22.963-51.2,51.2v2.295c-5.095,2.953-8.533,8.465-8.533,14.771
				v17.067c0,6.434,3.584,12.058,8.866,14.959c1.621,16.401,8.755,30.839,9.105,31.522c7.73,15.472,19.422,38.853,58.828,38.853
				c39.407,0,51.099-23.381,58.837-38.852c0.342-0.683,7.476-15.121,9.098-31.522c5.281-2.901,8.865-8.525,8.865-14.959V153.6
				c0-6.306-3.438-11.819-8.532-14.771v-2.295C443.733,108.297,420.77,85.333,392.533,85.333z M435.2,170.667
				c-4.71,0-8.533,3.823-8.533,8.533c0,14.763-7.562,30.174-7.637,30.319c-8.884,17.766-16.718,29.414-43.563,29.414
				s-34.679-11.648-43.563-29.406c-0.077-0.154-7.637-15.565-7.637-30.327c0-4.71-3.823-8.533-8.533-8.533V153.6
				c4.71,0,8.533-3.823,8.533-8.533v-8.533c0-18.825,15.309-34.133,34.133-34.133h34.133c18.824,0,34.133,15.309,34.133,34.133
				v8.533c0,4.71,3.823,8.533,8.533,8.533L435.2,170.667L435.2,170.667z"/>
		</g>
	</g>
</g>
</svg>
